STARTFONT 2.1
COMMENT
COMMENT Converted from OpenType font "..\ttf\ITC Avant Garde Gothic CE Book.otf" by "otf2bdf.exe 3.0".
COMMENT
FONT -FreeType-AvantGarde CE-Medium-R-Normal--43-310-100-100-P-201-ISO10646-1
SIZE 31 100 100
FONTBOUNDINGBOX 53 53 -3 -10
STARTPROPERTIES 19
FOUNDRY "FreeType"
FAMILY_NAME "AvantGarde CE"
WEIGHT_NAME "Medium"
SLANT "R"
SETWIDTH_NAME "Normal"
ADD_STYLE_NAME ""
PIXEL_SIZE 43
POINT_SIZE 310
RESOLUTION_X 100
RESOLUTION_Y 100
SPACING "P"
AVERAGE_WIDTH 201
CHARSET_REGISTRY "ISO10646"
CHARSET_ENCODING "1"
FONT_ASCENT 31
FONT_DESCENT 8
COPYRIGHT "Copyright (c) 1985, 1987, 1989, 1990, 1991, 1992, 1997 Adobe Systems Incorporated.  All Rights Reserved.ITC Avant Garde Gothic is a registered trademark of International Typeface Corporation."
_OTF_FONTFILE "..\ttf\ITC Avant Garde Gothic CE Book.otf"
_OTF_PSNAME "AvantGardeCE-Book"
ENDPROPERTIES
CHARS 260
STARTCHAR 0020
ENCODING 32
SWIDTH 278 0
DWIDTH 12 0
BBX 0 0 0 0
BITMAP
ENDCHAR
STARTCHAR 0021
ENCODING 33
SWIDTH 301 0
DWIDTH 13 0
BBX 3 32 5 0
BITMAP
E0
E0
E0
E0
E0
E0
E0
E0
E0
E0
E0
E0
E0
E0
E0
E0
E0
E0
E0
E0
E0
E0
E0
E0
00
00
E0
E0
E0
E0
E0
E0
ENDCHAR
STARTCHAR 0022
ENCODING 34
SWIDTH 301 0
DWIDTH 13 0
BBX 10 13 2 19
BITMAP
E1C0
E1C0
E1C0
E1C0
E1C0
E1C0
E1C0
E1C0
E1C0
E1C0
E1C0
E1C0
E1C0
ENDCHAR
STARTCHAR 0023
ENCODING 35
SWIDTH 557 0
DWIDTH 24 0
BBX 21 32 1 0
BITMAP
01C0E0
01C0C0
01C1C0
01C1C0
01C1C0
01C1C0
0181C0
0381C0
038180
7FFFF8
7FFFF8
7FFFF8
038380
030380
070380
070300
070700
070700
070700
070700
FFFFF0
FFFFF0
FFFFF0
0E0E00
0E0E00
0E0E00
0E0E00
0E0E00
1C0E00
1C0E00
1C1C00
1C1C00
ENDCHAR
STARTCHAR 0024
ENCODING 36
SWIDTH 557 0
DWIDTH 24 0
BBX 18 38 3 -3
BITMAP
01C000
01C000
01C000
01E000
0FFC00
1FFE00
3C1F00
380780
7803C0
7001C0
7001C0
700000
700000
780000
380000
3E0000
1FC000
0FF800
01FE00
003F00
000F80
000380
0003C0
0001C0
0001C0
E001C0
E001C0
E001C0
700380
780780
3C0F00
1FFE00
0FFC00
03E000
01C000
01C000
01C000
01C000
ENDCHAR
STARTCHAR 0025
ENCODING 37
SWIDTH 766 0
DWIDTH 33 0
BBX 32 34 1 -1
BITMAP
07E00000
1FF801C0
3FFC01C0
7C3E0380
700E0300
F00F0700
E0070E00
E0070E00
E0071C00
E0071C00
F00F3800
700E3000
7C3E7000
3FFCE000
0FF0E000
03C1C000
0001C000
000383C0
00030FF0
00073FFC
000E3C3C
000E781E
001C700F
001CE007
0038E007
0030E007
0070E007
00E0E007
00E0700E
01C0781E
01C03C3C
03803FFC
03000FF0
000003C0
ENDCHAR
STARTCHAR 0026
ENCODING 38
SWIDTH 766 0
DWIDTH 33 0
BBX 29 34 2 -1
BITMAP
007C0000
01FF0000
03FF8000
0783C000
0701C000
0E00E000
0E00E000
0E00E000
0E00E000
0F01E000
0701C000
0787C000
03DF81E0
01FF01C0
01FC03C0
07F80380
0FFC0780
1F3E0700
3C1F0F00
780F8E00
7007DE00
F003FC00
E001FC00
E000F800
E0007C00
E0007E00
E000FF00
7000EF80
7801E7C0
3C03C3E0
3E0F81F0
1FFF0078
07FE0030
01F80000
ENDCHAR
STARTCHAR 0027
ENCODING 39
SWIDTH 209 0
DWIDTH 9 0
BBX 3 13 3 19
BITMAP
E0
E0
E0
E0
E0
E0
E0
E0
E0
E0
E0
E0
E0
ENDCHAR
STARTCHAR 0028
ENCODING 40
SWIDTH 371 0
DWIDTH 16 0
BBX 13 42 2 -9
BITMAP
0008
0038
0078
00F8
01E0
03C0
0780
0F00
0E00
1E00
3C00
3C00
3800
7800
7000
7000
F000
E000
E000
E000
E000
E000
E000
E000
E000
F000
7000
7000
7800
3800
3800
3C00
1E00
0E00
0F00
0780
03C0
01E0
00F8
0078
0038
0008
ENDCHAR
STARTCHAR 0029
ENCODING 41
SWIDTH 371 0
DWIDTH 16 0
BBX 13 42 1 -8
BITMAP
C000
E000
F800
7C00
3E00
1F00
0F00
0780
03C0
03C0
01E0
00E0
00F0
00F0
0070
0070
0078
0038
0038
0038
0038
0038
0038
0038
0038
0078
0070
0070
0070
00E0
00E0
01E0
03C0
0380
0780
0F00
1E00
3C00
F800
F000
E000
8000
ENDCHAR
STARTCHAR 002A
ENCODING 42
SWIDTH 418 0
DWIDTH 18 0
BBX 13 13 3 19
BITMAP
0700
0700
0700
8700
E738
FFF8
3FE0
0F80
1F80
1DC0
38E0
70E0
1040
ENDCHAR
STARTCHAR 002B
ENCODING 43
SWIDTH 603 0
DWIDTH 26 0
BBX 21 22 3 1
BITMAP
007000
007000
007000
007000
007000
007000
007000
007000
007000
FFFFF8
FFFFF8
FFFFF8
007000
007000
007000
007000
007000
007000
007000
007000
007000
007000
ENDCHAR
STARTCHAR 002C
ENCODING 44
SWIDTH 278 0
DWIDTH 12 0
BBX 7 8 1 -3
BITMAP
0E
1C
1C
38
38
70
70
E0
ENDCHAR
STARTCHAR 002D
ENCODING 45
SWIDTH 325 0
DWIDTH 14 0
BBX 12 3 1 11
BITMAP
FFF0
FFF0
FFF0
ENDCHAR
STARTCHAR 002E
ENCODING 46
SWIDTH 278 0
DWIDTH 12 0
BBX 3 6 4 0
BITMAP
E0
E0
E0
E0
E0
E0
ENDCHAR
STARTCHAR 002F
ENCODING 47
SWIDTH 441 0
DWIDTH 19 0
BBX 15 37 2 -5
BITMAP
000E
001E
001C
001C
003C
0038
0038
0078
0070
0070
00F0
00E0
00E0
01E0
01C0
01C0
03C0
0380
0380
0380
0700
0700
0700
0E00
0E00
0E00
1C00
1C00
1C00
3C00
3800
3800
7800
7000
7000
F000
E000
ENDCHAR
STARTCHAR 0030
ENCODING 48
SWIDTH 557 0
DWIDTH 24 0
BBX 21 34 1 -1
BITMAP
01FC00
07FF00
0FFF80
1F07C0
3C01E0
7800F0
700070
700070
E00038
E00038
E00038
E00038
E00038
E00038
E00038
E00038
E00038
E00038
E00038
E00038
E00038
E00038
E00038
E00038
E00038
E00038
700070
700070
7800F0
3C01E0
1F07C0
0FFF80
07FF00
00F800
ENDCHAR
STARTCHAR 0031
ENCODING 49
SWIDTH 557 0
DWIDTH 24 0
BBX 8 32 6 0
BITMAP
FF
FF
FF
07
07
07
07
07
07
07
07
07
07
07
07
07
07
07
07
07
07
07
07
07
07
07
07
07
07
07
07
07
ENDCHAR
STARTCHAR 0032
ENCODING 50
SWIDTH 557 0
DWIDTH 24 0
BBX 20 33 2 0
BITMAP
01F800
07FF00
1FFF80
3E07C0
3801C0
7001E0
7000E0
F00070
E00070
E00070
E00070
000070
0000F0
0000E0
0001E0
0003C0
000380
000780
000F00
001E00
003C00
007800
00F000
01E000
03C000
078000
0E0000
1C0000
380000
700000
FFFFF0
FFFFF0
FFFFF0
ENDCHAR
STARTCHAR 0033
ENCODING 51
SWIDTH 557 0
DWIDTH 24 0
BBX 21 34 1 -1
BITMAP
00FC00
03FF00
0FFF80
0F07C0
1E01C0
1C01E0
3800E0
3800E0
3800E0
0000E0
0001E0
0001C0
0007C0
00FF80
00FF00
00FF80
0007E0
0001E0
0000F0
000070
000078
000038
000038
E00038
E00038
E00038
F00078
700070
7800F0
3C01E0
1F07C0
0FFF80
07FF00
00F800
ENDCHAR
STARTCHAR 0034
ENCODING 52
SWIDTH 557 0
DWIDTH 24 0
BBX 22 32 1 0
BITMAP
0001E0
0003E0
0003E0
0007E0
000FE0
000EE0
001EE0
003CE0
0038E0
0078E0
00F0E0
00E0E0
01E0E0
03C0E0
0380E0
0780E0
0F00E0
0E00E0
1E00E0
3C00E0
3800E0
7800E0
F000E0
FFFFFC
FFFFFC
FFFFFC
0000E0
0000E0
0000E0
0000E0
0000E0
0000E0
ENDCHAR
STARTCHAR 0035
ENCODING 53
SWIDTH 557 0
DWIDTH 24 0
BBX 21 33 2 -1
BITMAP
0FFFC0
0FFFC0
0FFFC0
0E0000
1C0000
1C0000
1C0000
1C0000
1C0000
380000
38FC00
3FFF00
3FFF80
3E07C0
3C01E0
7800F0
000070
000070
000038
000038
000038
000038
E00038
E00038
E00038
F00070
700070
7800E0
3C01E0
1F07C0
0FFF80
07FE00
00F800
ENDCHAR
STARTCHAR 0036
ENCODING 54
SWIDTH 557 0
DWIDTH 24 0
BBX 22 33 1 -1
BITMAP
000E00
001E00
003C00
003800
007000
00F000
01E000
01C000
03C000
078000
077E00
0FFF80
1FFFC0
1F03E0
3C00F0
380078
700038
700038
E0001C
E0001C
E0001C
E0001C
E0001C
E0001C
F0001C
700038
780038
380070
3C00F0
1F03E0
0FFFC0
03FF00
00FC00
ENDCHAR
STARTCHAR 0037
ENCODING 55
SWIDTH 557 0
DWIDTH 24 0
BBX 18 32 3 0
BITMAP
FFFFC0
FFFFC0
FFFFC0
0001C0
000380
000380
000700
000700
000F00
000E00
001E00
001C00
001C00
003800
003800
007000
007000
00F000
00E000
00E000
01C000
01C000
038000
038000
078000
070000
0F0000
0E0000
0E0000
1C0000
1C0000
380000
ENDCHAR
STARTCHAR 0038
ENCODING 56
SWIDTH 557 0
DWIDTH 24 0
BBX 20 34 2 -1
BITMAP
01F800
07FE00
0FFF00
0F0F80
1C0380
1C03C0
3801C0
3801C0
3801C0
3801C0
3801C0
1C0380
1E0780
0F0F00
07FE00
07FE00
0FFF00
1E07C0
3803C0
7801E0
7000E0
E00070
E00070
E00070
E00070
E00070
F00070
7000E0
7801E0
3C03C0
1F0780
0FFF00
07FE00
01F800
ENDCHAR
STARTCHAR 0039
ENCODING 57
SWIDTH 557 0
DWIDTH 24 0
BBX 22 33 1 0
BITMAP
00FC00
03FF80
0FFFC0
1F03E0
3C00F0
380070
700038
700038
F0003C
E0001C
E0001C
E0001C
E0001C
E0001C
F0001C
700038
780038
380070
3C00F0
1F03E0
0FFFE0
03FFC0
00FB80
000780
000F00
000E00
001E00
003C00
003800
007000
00F000
01E000
01C000
ENDCHAR
STARTCHAR 003A
ENCODING 58
SWIDTH 278 0
DWIDTH 12 0
BBX 3 24 4 0
BITMAP
E0
E0
E0
E0
E0
E0
00
00
00
00
00
00
00
00
00
00
00
00
E0
E0
E0
E0
E0
E0
ENDCHAR
STARTCHAR 003B
ENCODING 59
SWIDTH 278 0
DWIDTH 12 0
BBX 7 27 0 -3
BITMAP
0E
0E
0E
0E
0E
0E
00
00
00
00
00
00
00
00
00
00
00
00
00
0E
1C
1C
38
38
78
70
F0
ENDCHAR
STARTCHAR 003C
ENCODING 60
SWIDTH 603 0
DWIDTH 26 0
BBX 22 23 2 0
BITMAP
000004
00001C
00007C
0001F8
000FE0
003F80
00FE00
03F000
0FC000
7F0000
FC0000
F00000
FC0000
7F0000
1FC000
03F000
00FC00
003F80
000FE0
0003F8
00007C
00001C
000004
ENDCHAR
STARTCHAR 003D
ENCODING 61
SWIDTH 603 0
DWIDTH 26 0
BBX 22 12 2 5
BITMAP
FFFFFC
FFFFFC
FFFFFC
000000
000000
000000
000000
000000
000000
FFFFFC
FFFFFC
FFFFFC
ENDCHAR
STARTCHAR 003E
ENCODING 62
SWIDTH 603 0
DWIDTH 26 0
BBX 22 23 2 0
BITMAP
800000
E00000
F80000
7E0000
1FC000
07F000
01FC00
003F00
000FC0
0003F8
0000FC
00003C
0000FC
0003F8
000FE0
003F00
00FC00
07F000
1FC000
7F0000
F80000
E00000
800000
ENDCHAR
STARTCHAR 003F
ENCODING 63
SWIDTH 580 0
DWIDTH 25 0
BBX 19 33 3 0
BITMAP
01F000
07FE00
1FFF00
3E0F80
3803C0
7001C0
7001E0
E000E0
E000E0
E000E0
E000E0
0000E0
0001E0
0001C0
000380
000780
000F00
001E00
003C00
007800
007000
00F000
00E000
00E000
00E000
000000
000000
00E000
00E000
00E000
00E000
00E000
00E000
ENDCHAR
STARTCHAR 0040
ENCODING 64
SWIDTH 859 0
DWIDTH 37 0
BBX 32 35 3 -1
BITMAP
0007F000
003FFF00
00FFFF80
03F80FE0
07C001F0
0F800078
1E00003C
1E00001C
3C00001E
3803C00E
780FF30E
701FF707
703C3F07
F0781F07
E0700F07
E0700E07
E0E00E07
E0E00E07
E0E00E07
E0E00E0E
E0E01C0E
F0E01C1E
70703C1C
70787C38
783FEFF8
381FC7F0
3C0F83C0
1C000000
1E000000
0F800000
07C00060
03F803F0
00FFFFE0
003FFF80
0007F800
ENDCHAR
STARTCHAR 0041
ENCODING 65
SWIDTH 743 0
DWIDTH 32 0
BBX 31 32 1 0
BITMAP
00078000
0007C000
0007C000
000FE000
000EE000
001EF000
001C7000
003C7000
00383800
00383800
00783C00
00701C00
00F01E00
00E00E00
01E00E00
01C00F00
01C00700
03C00780
03FFFF80
07FFFFC0
07FFFFC0
0F0001C0
0E0001E0
0E0000E0
1E0000F0
1C000070
3C000078
38000038
7800003C
7000003C
7000001C
F000001E
ENDCHAR
STARTCHAR 0042
ENCODING 66
SWIDTH 580 0
DWIDTH 25 0
BBX 20 32 3 0
BITMAP
FFF000
FFFC00
FFFF00
E01F80
E00780
E003C0
E001C0
E001C0
E001C0
E001C0
E001C0
E003C0
E00780
E00F00
FFFE00
FFFF00
FFFF80
E007C0
E001E0
E000E0
E000F0
E00070
E00070
E00070
E00070
E000F0
E000E0
E001E0
E007C0
FFFF80
FFFF00
FFF800
ENDCHAR
STARTCHAR 0043
ENCODING 67
SWIDTH 812 0
DWIDTH 35 0
BBX 31 34 2 -1
BITMAP
0007F000
003FFE00
00FFFF80
01F80FC0
07E003F0
0F8000F8
0F00007C
1E00003C
3C00001E
38000000
78000000
70000000
70000000
F0000000
E0000000
E0000000
E0000000
E0000000
E0000000
E0000000
E0000000
70000000
70000000
78000000
38000000
3C00001E
1E00003C
0F000078
0F8000F8
07E001F0
01F80FC0
00FFFF80
003FFE00
0007F000
ENDCHAR
STARTCHAR 0044
ENCODING 68
SWIDTH 743 0
DWIDTH 32 0
BBX 27 32 3 0
BITMAP
FFFC0000
FFFFC000
FFFFF000
E003F800
E0007C00
E0001E00
E0000F00
E0000780
E0000380
E00003C0
E00001C0
E00001C0
E00000E0
E00000E0
E00000E0
E00000E0
E00000E0
E00000E0
E00000E0
E00000E0
E00001C0
E00001C0
E00003C0
E0000380
E0000780
E0000F00
E0001E00
E0007C00
E003F800
FFFFE000
FFFF8000
FFFC0000
ENDCHAR
STARTCHAR 0045
ENCODING 69
SWIDTH 534 0
DWIDTH 23 0
BBX 17 32 3 0
BITMAP
FFFF80
FFFF80
FFFF80
E00000
E00000
E00000
E00000
E00000
E00000
E00000
E00000
E00000
E00000
E00000
FFFF80
FFFF80
FFFF80
E00000
E00000
E00000
E00000
E00000
E00000
E00000
E00000
E00000
E00000
E00000
E00000
FFFF80
FFFF80
FFFF80
ENDCHAR
STARTCHAR 0046
ENCODING 70
SWIDTH 487 0
DWIDTH 21 0
BBX 16 32 3 0
BITMAP
FFFF
FFFF
FFFF
E000
E000
E000
E000
E000
E000
E000
E000
E000
E000
E000
FFFE
FFFE
FFFE
E000
E000
E000
E000
E000
E000
E000
E000
E000
E000
E000
E000
E000
E000
E000
ENDCHAR
STARTCHAR 0047
ENCODING 71
SWIDTH 882 0
DWIDTH 38 0
BBX 34 34 2 -1
BITMAP
0007F80000
003FFF0000
00FFFFC000
01F807E000
03C001F800
0F80007C00
0F00003C00
1E00001E00
3C00000F00
3800000000
7800000000
7000000000
7000000000
E000000000
E000000000
E000000000
E000000000
E000000000
E00FFFFFC0
E00FFFFFC0
F00FFFFF80
7000000380
7000000780
7800000780
3800000F00
3C00000E00
1E00001E00
0F00003C00
0780007800
03E001F000
01F807E000
00FFFF8000
003FFE0000
0007F00000
ENDCHAR
STARTCHAR 0048
ENCODING 72
SWIDTH 673 0
DWIDTH 29 0
BBX 23 32 3 0
BITMAP
E0000E
E0000E
E0000E
E0000E
E0000E
E0000E
E0000E
E0000E
E0000E
E0000E
E0000E
E0000E
E0000E
E0000E
FFFFFE
FFFFFE
FFFFFE
E0000E
E0000E
E0000E
E0000E
E0000E
E0000E
E0000E
E0000E
E0000E
E0000E
E0000E
E0000E
E0000E
E0000E
E0000E
ENDCHAR
STARTCHAR 0049
ENCODING 73
SWIDTH 232 0
DWIDTH 10 0
BBX 3 32 3 0
BITMAP
E0
E0
E0
E0
E0
E0
E0
E0
E0
E0
E0
E0
E0
E0
E0
E0
E0
E0
E0
E0
E0
E0
E0
E0
E0
E0
E0
E0
E0
E0
E0
E0
ENDCHAR
STARTCHAR 004A
ENCODING 74
SWIDTH 487 0
DWIDTH 21 0
BBX 17 33 0 -1
BITMAP
000380
000380
000380
000380
000380
000380
000380
000380
000380
000380
000380
000380
000380
000380
000380
000380
000380
000380
000380
000380
000380
000380
000380
000380
000380
E00380
F00380
700780
780700
3E1F00
1FFE00
0FF800
01E000
ENDCHAR
STARTCHAR 004B
ENCODING 75
SWIDTH 580 0
DWIDTH 25 0
BBX 21 32 3 0
BITMAP
E00078
E00078
E000F0
E001E0
E003C0
E00780
E00780
E00F00
E01E00
E03C00
E07800
E07000
E0F000
E1E000
E3C000
E78000
E7C000
EFE000
FFE000
FCF000
F87800
F03C00
F03C00
E01E00
E00F00
E00780
E003C0
E003C0
E001E0
E000F0
E00078
E00078
ENDCHAR
STARTCHAR 004C
ENCODING 76
SWIDTH 464 0
DWIDTH 20 0
BBX 16 32 4 0
BITMAP
E000
E000
E000
E000
E000
E000
E000
E000
E000
E000
E000
E000
E000
E000
E000
E000
E000
E000
E000
E000
E000
E000
E000
E000
E000
E000
E000
E000
E000
FFFF
FFFF
FFFF
ENDCHAR
STARTCHAR 004D
ENCODING 77
SWIDTH 929 0
DWIDTH 40 0
BBX 33 32 3 0
BITMAP
F800000F80
F800000F80
FC00001F80
FC00001F80
FE00003F80
EE00003B80
EF00007B80
E700007380
E700007380
E38000E380
E38000E380
E3C001E380
E1C001C380
E1E003C380
E0E0038380
E0E0038380
E070070380
E070070380
E0780F0380
E0380E0380
E03C1E0380
E01C1C0380
E01C1C0380
E01E380380
E00E380380
E00F780380
E007700380
E007F00380
E003E00380
E003E00380
E003C00380
E001C00380
ENDCHAR
STARTCHAR 004E
ENCODING 78
SWIDTH 743 0
DWIDTH 32 0
BBX 25 32 3 0
BITMAP
F0000380
F8000380
FC000380
FC000380
FE000380
EF000380
E7800380
E7800380
E3C00380
E1E00380
E0E00380
E0F00380
E0780380
E0380380
E03C0380
E01E0380
E00E0380
E00F0380
E0078380
E0038380
E003C380
E001E380
E000E380
E000F380
E0007B80
E0003B80
E0003F80
E0001F80
E0000F80
E0000F80
E0000780
E0000380
ENDCHAR
STARTCHAR 004F
ENCODING 79
SWIDTH 859 0
DWIDTH 37 0
BBX 33 34 2 -1
BITMAP
0007F00000
003FFE0000
00FFFF8000
01F00FE000
07C001F000
0F8000F800
0E00007C00
1E00003C00
3C00001E00
3800000E00
7800000F00
7000000700
7000000700
E000000380
E000000380
E000000380
E000000380
E000000380
E000000380
E000000380
E000000380
7000000700
7000000700
7800000F00
3800000E00
3C00001E00
1E00003C00
0F00007800
078000F000
03E001E000
01F80FC000
00FFFF8000
003FFE0000
0007F00000
ENDCHAR
STARTCHAR 0050
ENCODING 80
SWIDTH 603 0
DWIDTH 26 0
BBX 21 32 3 0
BITMAP
FFFC00
FFFF80
FFFFC0
E007E0
E001F0
E00070
E00078
E00038
E00038
E00038
E00038
E00038
E00078
E00070
E000F0
E003E0
FFFFC0
FFFF00
FFFC00
E00000
E00000
E00000
E00000
E00000
E00000
E00000
E00000
E00000
E00000
E00000
E00000
E00000
ENDCHAR
STARTCHAR 0051
ENCODING 81
SWIDTH 882 0
DWIDTH 38 0
BBX 34 34 2 -1
BITMAP
0007F80000
003FFF0000
00FFFFC000
01F807F000
07E000F800
0F80007C00
0F00003E00
1E00001E00
3C00000F00
3800000700
7800000780
7000000380
7000000380
E0000001C0
E0000001C0
E0000001C0
E0000001C0
E0000001C0
E0000001C0
E0000001C0
E3FE0001C0
7FFFC00380
7FFFF00380
7C01FC0780
38003E0700
3C000F8F00
1E0007DE00
0F0003FC00
078000FC00
03E001F800
01F807FE00
00FFFFDFC0
003FFF0FC0
0007F803C0
ENDCHAR
STARTCHAR 0052
ENCODING 82
SWIDTH 603 0
DWIDTH 26 0
BBX 21 32 3 0
BITMAP
FFF800
FFFF00
FFFFC0
E007E0
E001E0
E000F0
E00070
E00038
E00038
E00038
E00038
E00038
E00038
E00070
E000F0
E001F0
E007E0
E3FFC0
E1FF80
E0FC00
E07000
E07800
E03C00
E01C00
E01E00
E00F00
E00780
E00380
E003C0
E001E0
E000E0
E000F0
ENDCHAR
STARTCHAR 0053
ENCODING 83
SWIDTH 487 0
DWIDTH 21 0
BBX 19 34 1 -1
BITMAP
01F000
07FC00
0FFF00
1E0F00
3C0780
380380
7003C0
7001C0
7001C0
700000
700000
780000
3C0000
3E0000
1FC000
0FF800
03FE00
007F00
000F80
0007C0
0001C0
0001E0
0000E0
0000E0
E000E0
E000E0
F000E0
7001C0
7801C0
3803C0
3E0F80
1FFF00
07FC00
01F000
ENDCHAR
STARTCHAR 0054
ENCODING 84
SWIDTH 418 0
DWIDTH 18 0
BBX 17 32 1 0
BITMAP
FFFF80
FFFF80
FFFF80
01C000
01C000
01C000
01C000
01C000
01C000
01C000
01C000
01C000
01C000
01C000
01C000
01C000
01C000
01C000
01C000
01C000
01C000
01C000
01C000
01C000
01C000
01C000
01C000
01C000
01C000
01C000
01C000
01C000
ENDCHAR
STARTCHAR 0055
ENCODING 85
SWIDTH 650 0
DWIDTH 28 0
BBX 22 33 3 -1
BITMAP
E0001C
E0001C
E0001C
E0001C
E0001C
E0001C
E0001C
E0001C
E0001C
E0001C
E0001C
E0001C
E0001C
E0001C
E0001C
E0001C
E0001C
E0001C
E0001C
E0001C
E0001C
E0001C
E0001C
E0001C
F0001C
700038
700038
380070
3C00F0
1F03E0
0FFFC0
07FF00
00FC00
ENDCHAR
STARTCHAR 0056
ENCODING 86
SWIDTH 696 0
DWIDTH 30 0
BBX 29 32 1 0
BITMAP
E0000078
F0000070
70000070
700000F0
780000E0
380001E0
3C0001C0
1C0001C0
1C000380
1E000380
0E000780
0F000700
07000700
07000E00
07800E00
03801E00
03C01C00
01C03C00
01C03800
01E03800
00E07800
00F07000
0070F000
0070E000
0038E000
0039C000
003DC000
001FC000
001F8000
000F8000
000F0000
000F0000
ENDCHAR
STARTCHAR 0057
ENCODING 87
SWIDTH 952 0
DWIDTH 41 0
BBX 40 32 0 0
BITMAP
E000380007
E0003C000F
F0003C000E
70007C000E
70007E000E
70007E001C
78007E001C
3800EE001C
3800E7003C
3C00E70038
1C01C70038
1C01C70038
1C01C38070
1E01C38070
0E03838070
0E0383C0F0
0E0381C0E0
070381C0E0
070701C0E0
070701E1C0
078700E1C0
038F00E1C0
038E00E3C0
038E007380
01CE007380
01DC007380
01DC007F00
01FC003F00
00FC003F00
00F8003F00
00F8003E00
00F8001E00
ENDCHAR
STARTCHAR 0058
ENCODING 88
SWIDTH 603 0
DWIDTH 26 0
BBX 26 32 0 0
BITMAP
78000780
38000700
3C000F00
1E001E00
0E001C00
0F003C00
07807800
03C07000
03C0F000
01E1E000
00F1C000
00F3C000
007F8000
003F0000
003F0000
001E0000
003F0000
003F0000
007F8000
00F3C000
00F3C000
01E1E000
03C0F000
03C0F000
07807800
0F003C00
0F003C00
1E001E00
3C000F00
38000F00
78000780
F00003C0
ENDCHAR
STARTCHAR 0059
ENCODING 89
SWIDTH 603 0
DWIDTH 26 0
BBX 25 32 0 0
BITMAP
F0000780
70000700
78000F00
38000E00
3C001E00
1C001C00
1E003C00
0E003800
0F007800
07007000
0780F000
0380E000
03C1E000
01C1C000
01E3C000
00E38000
00F78000
00770000
003E0000
003E0000
001C0000
001C0000
001C0000
001C0000
001C0000
001C0000
001C0000
001C0000
001C0000
001C0000
001C0000
001C0000
ENDCHAR
STARTCHAR 005A
ENCODING 90
SWIDTH 487 0
DWIDTH 21 0
BBX 20 32 1 0
BITMAP
FFFFF0
FFFFF0
FFFFF0
0000F0
0001E0
0001C0
0003C0
000780
000780
000F00
000E00
001E00
003C00
003800
007800
00F000
00F000
01E000
01C000
03C000
078000
070000
0F0000
1E0000
1E0000
3C0000
380000
780000
F00000
FFFFF0
FFFFF0
FFFFF0
ENDCHAR
STARTCHAR 005B
ENCODING 91
SWIDTH 348 0
DWIDTH 15 0
BBX 8 41 6 -8
BITMAP
01
07
0F
1F
3C
38
70
70
F0
E0
E0
E0
E0
E0
E0
E0
E0
E0
E0
E0
E0
E0
E0
E0
E0
E0
E0
E0
E0
E0
E0
E0
E0
70
70
38
3C
1F
0F
07
01
ENDCHAR
STARTCHAR 005C
ENCODING 92
SWIDTH 603 0
DWIDTH 26 0
BBX 15 37 5 -5
BITMAP
F000
F000
7000
7800
7800
3800
3C00
3C00
1C00
1E00
1E00
0E00
0F00
0F00
0700
0700
0780
0380
0380
03C0
01C0
01C0
01E0
00E0
00E0
00F0
0070
0070
0078
0038
0038
003C
001C
001C
001E
000E
000E
ENDCHAR
STARTCHAR 005D
ENCODING 93
SWIDTH 348 0
DWIDTH 15 0
BBX 8 41 1 -8
BITMAP
80
E0
F0
F8
3C
1E
0E
0E
0F
07
07
07
07
07
07
07
07
07
07
07
07
07
07
07
07
07
07
07
07
07
07
07
07
0E
0E
1C
3C
F8
F0
E0
80
ENDCHAR
STARTCHAR 005E
ENCODING 94
SWIDTH 603 0
DWIDTH 26 0
BBX 22 19 2 13
BITMAP
007800
007800
00FC00
00FC00
01CE00
01CE00
038700
038700
070380
070380
0E01C0
0E01C0
1C00E0
1C00E0
380070
380070
700038
700038
E0001C
ENDCHAR
STARTCHAR 005F
ENCODING 95
SWIDTH 510 0
DWIDTH 22 0
BBX 22 3 0 -6
BITMAP
FFFFFC
FFFFFC
FFFFFC
ENDCHAR
STARTCHAR 0060
ENCODING 96
SWIDTH 371 0
DWIDTH 16 0
BBX 10 7 3 27
BITMAP
4000
7000
FC00
3F00
0FC0
0380
0080
ENDCHAR
STARTCHAR 0061
ENCODING 97
SWIDTH 673 0
DWIDTH 29 0
BBX 25 26 2 -1
BITMAP
003F0000
01FFC380
07FFF380
0FC0FB80
1E003F80
3C001F80
38000F80
78000F80
70000780
70000780
E0000380
E0000380
E0000380
E0000380
E0000380
E0000380
70000780
70000780
78000780
38000F80
3C001F80
1F003F80
0FC0FB80
07FFF380
01FFC380
003E0000
ENDCHAR
STARTCHAR 0062
ENCODING 98
SWIDTH 673 0
DWIDTH 29 0
BBX 25 33 3 -1
BITMAP
E0000000
E0000000
E0000000
E0000000
E0000000
E0000000
E0000000
E03E0000
E1FFC000
E3FFF000
EF81F800
EE003C00
FC001E00
F8000E00
F8000F00
F0000700
F0000780
E0000380
E0000380
E0000380
E0000380
E0000380
E0000380
F0000380
F0000700
F8000700
F8000E00
FC001E00
FE003C00
EF80F800
E7FFF000
E1FFC000
003E0000
ENDCHAR
STARTCHAR 0063
ENCODING 99
SWIDTH 650 0
DWIDTH 28 0
BBX 24 26 2 -1
BITMAP
003E00
01FFC0
07FFF0
0FC0F8
1F003C
3C001E
38000F
780007
700000
700000
E00000
E00000
E00000
E00000
E00000
E00000
F00000
700000
780007
38000F
3C001E
1F003C
0FC0F8
07FFF0
01FFC0
003F00
ENDCHAR
STARTCHAR 0064
ENCODING 100
SWIDTH 696 0
DWIDTH 30 0
BBX 25 33 2 -1
BITMAP
00000380
00000380
00000380
00000380
00000380
00000380
00000380
003F0380
01FFC380
07FFF380
0FC0FB80
1E003F80
3C001F80
38000F80
78000F80
70000780
70000780
E0000380
E0000380
E0000380
E0000380
E0000380
E0000380
70000780
70000780
78000780
38000F80
3C001F80
1F003F80
0FC0FB80
07FFF380
01FFC380
003E0000
ENDCHAR
STARTCHAR 0065
ENCODING 101
SWIDTH 650 0
DWIDTH 28 0
BBX 24 26 2 -1
BITMAP
007E00
01FFC0
07FFE0
0F81F0
1E0078
3C003C
38001E
70000E
70000F
E00007
E00007
FFFFFF
FFFFFF
FFFFFF
E00000
E00000
600000
70000E
70000E
38001E
3C003C
1E0078
0F81F0
07FFE0
01FF80
007E00
ENDCHAR
STARTCHAR 0066
ENCODING 102
SWIDTH 325 0
DWIDTH 14 0
BBX 13 33 0 0
BITMAP
0078
01F8
03F8
07C0
0700
0F00
0E00
0E00
0E00
FFF8
FFF8
FFF8
0E00
0E00
0E00
0E00
0E00
0E00
0E00
0E00
0E00
0E00
0E00
0E00
0E00
0E00
0E00
0E00
0E00
0E00
0E00
0E00
0E00
ENDCHAR
STARTCHAR 0067
ENCODING 103
SWIDTH 673 0
DWIDTH 29 0
BBX 24 35 2 -10
BITMAP
007E00
01FF87
07FFE7
0F81F7
1E007F
3C003F
38001F
78001F
70000F
70000F
E00007
E00007
E00007
E00007
E00007
E00007
F0000F
70000F
78000F
38001F
3C003F
1E007F
0F81F7
07FFE7
01FF87
007E07
700007
78000E
3C000E
3C001E
1F003C
0FC0F8
07FFF0
01FFE0
003F00
ENDCHAR
STARTCHAR 0068
ENCODING 104
SWIDTH 603 0
DWIDTH 26 0
BBX 20 32 3 0
BITMAP
E00000
E00000
E00000
E00000
E00000
E00000
E00000
E0F800
E7FE00
EFFF80
FE0FC0
FC03C0
F801E0
F000E0
F000F0
E00070
E00070
E00070
E00070
E00070
E00070
E00070
E00070
E00070
E00070
E00070
E00070
E00070
E00070
E00070
E00070
E00070
ENDCHAR
STARTCHAR 0069
ENCODING 105
SWIDTH 209 0
DWIDTH 9 0
BBX 3 32 3 0
BITMAP
E0
E0
E0
E0
E0
E0
00
00
E0
E0
E0
E0
E0
E0
E0
E0
E0
E0
E0
E0
E0
E0
E0
E0
E0
E0
E0
E0
E0
E0
E0
E0
ENDCHAR
STARTCHAR 006A
ENCODING 106
SWIDTH 209 0
DWIDTH 9 0
BBX 8 40 -2 -8
BITMAP
07
07
07
07
07
07
00
00
07
07
07
07
07
07
07
07
07
07
07
07
07
07
07
07
07
07
07
07
07
07
07
07
07
07
0F
0E
1E
FC
F8
E0
ENDCHAR
STARTCHAR 006B
ENCODING 107
SWIDTH 510 0
DWIDTH 22 0
BBX 18 32 3 0
BITMAP
E00000
E00000
E00000
E00000
E00000
E00000
E00000
E00000
E003C0
E00780
E00F00
E01E00
E01C00
E03C00
E07800
E0F000
E0E000
E1E000
E3C000
E78000
E78000
EFC000
FFE000
FCE000
F8F000
F07800
F03C00
E01E00
E00F00
E00F00
E00780
E003C0
ENDCHAR
STARTCHAR 006C
ENCODING 108
SWIDTH 209 0
DWIDTH 9 0
BBX 3 32 3 0
BITMAP
E0
E0
E0
E0
E0
E0
E0
E0
E0
E0
E0
E0
E0
E0
E0
E0
E0
E0
E0
E0
E0
E0
E0
E0
E0
E0
E0
E0
E0
E0
E0
E0
ENDCHAR
STARTCHAR 006D
ENCODING 109
SWIDTH 929 0
DWIDTH 40 0
BBX 35 25 3 0
BITMAP
01F001F000
E7FC07FE00
EFFF1FFF00
FE0FBE0F80
F803B803C0
F001F001C0
F001F001C0
E000E000E0
E000E000E0
E000E000E0
E000E000E0
E000E000E0
E000E000E0
E000E000E0
E000E000E0
E000E000E0
E000E000E0
E000E000E0
E000E000E0
E000E000E0
E000E000E0
E000E000E0
E000E000E0
E000E000E0
E000E000E0
ENDCHAR
STARTCHAR 006E
ENCODING 110
SWIDTH 603 0
DWIDTH 26 0
BBX 21 25 3 0
BITMAP
00FC00
E3FF00
EFFF80
FF07C0
FC01E0
F800F0
F00070
F00078
E00038
E00038
E00038
E00038
E00038
E00038
E00038
E00038
E00038
E00038
E00038
E00038
E00038
E00038
E00038
E00038
E00038
ENDCHAR
STARTCHAR 006F
ENCODING 111
SWIDTH 650 0
DWIDTH 28 0
BBX 24 26 2 -1
BITMAP
007E00
01FF80
07FFE0
0F81F0
1E0078
3C003C
38001C
78000E
70000E
70000F
E00007
E00007
E00007
E00007
E00007
E00007
F0000F
70000E
78000E
38001C
3C003C
1E0078
0F81F0
07FFE0
01FF80
007E00
ENDCHAR
STARTCHAR 0070
ENCODING 112
SWIDTH 673 0
DWIDTH 29 0
BBX 25 33 3 -8
BITMAP
003E0000
E1FFC000
E3FFF000
EF81F800
EE003C00
FC001E00
F8000E00
F8000F00
F0000700
F0000780
E0000380
E0000380
E0000380
E0000380
E0000380
E0000380
F0000380
F0000700
F8000700
F8000E00
FC001E00
FE003C00
EF80F800
E7FFF000
E1FFC000
E03E0000
E0000000
E0000000
E0000000
E0000000
E0000000
E0000000
E0000000
ENDCHAR
STARTCHAR 0071
ENCODING 113
SWIDTH 673 0
DWIDTH 29 0
BBX 25 33 2 -8
BITMAP
003F0000
01FFC380
07FFF380
0FC0FB80
1E003F80
3C001F80
38000F80
78000F80
70000780
70000780
E0000380
E0000380
E0000380
E0000380
E0000380
E0000380
70000780
70000780
78000780
38000F80
3C001F80
1F003F80
0FC0FB80
07FFF380
01FFC380
003E0380
00000380
00000380
00000380
00000380
00000380
00000380
00000380
ENDCHAR
STARTCHAR 0072
ENCODING 114
SWIDTH 301 0
DWIDTH 13 0
BBX 10 24 3 0
BITMAP
E3C0
E7C0
EFC0
FE00
F800
F000
F000
E000
E000
E000
E000
E000
E000
E000
E000
E000
E000
E000
E000
E000
E000
E000
E000
E000
ENDCHAR
STARTCHAR 0073
ENCODING 115
SWIDTH 394 0
DWIDTH 17 0
BBX 15 26 1 -1
BITMAP
0380
0FF0
1FF8
3C78
783C
701C
701C
7000
7800
7C00
3F00
1FC0
0FF0
01F8
007C
001E
001E
000E
E00E
E00E
F00E
701C
783C
3FF8
1FF0
03C0
ENDCHAR
STARTCHAR 0074
ENCODING 116
SWIDTH 348 0
DWIDTH 15 0
BBX 14 32 1 0
BITMAP
0700
0700
0700
0700
0700
0700
0700
0700
FFFC
FFFC
FFFC
0700
0700
0700
0700
0700
0700
0700
0700
0700
0700
0700
0700
0700
0700
0700
0700
0700
0700
0700
0700
0700
ENDCHAR
STARTCHAR 0075
ENCODING 117
SWIDTH 603 0
DWIDTH 26 0
BBX 20 25 3 -1
BITMAP
E00070
E00070
E00070
E00070
E00070
E00070
E00070
E00070
E00070
E00070
E00070
E00070
E00070
E00070
E00070
E00070
E00070
F000F0
7000F0
7801F0
3803F0
3E0770
1FFF70
07FC70
01F000
ENDCHAR
STARTCHAR 0076
ENCODING 118
SWIDTH 557 0
DWIDTH 24 0
BBX 23 24 0 0
BITMAP
E0000E
F0001C
70001C
70003C
380038
380078
3C0070
1C0070
1E00E0
0E00E0
0E01E0
0701C0
0701C0
078380
038380
038780
01C700
01CF00
01EE00
00EE00
00FC00
007C00
007C00
003800
ENDCHAR
STARTCHAR 0077
ENCODING 119
SWIDTH 836 0
DWIDTH 36 0
BBX 35 24 1 0
BITMAP
F0000000E0
70000001C0
70000001C0
3800E001C0
3800E00380
3801F00380
1C01F00780
1C01F00700
1E01B80700
0E03B80E00
0E03B80E00
07031C0E00
07071C1C00
07071C1C00
03870E3C00
038E0E3800
038E0E3800
01CE077000
01DC077000
00FC077000
00FC07E000
00F803E000
007803E000
007803C000
ENDCHAR
STARTCHAR 0078
ENCODING 120
SWIDTH 487 0
DWIDTH 21 0
BBX 20 24 1 0
BITMAP
F000F0
7801E0
3801C0
3C03C0
1E0780
0E0700
070E00
079E00
03DC00
01F800
01F800
00F000
00F000
01F800
03FC00
039C00
079E00
0F0F00
0E0700
1E0780
3C03C0
3801C0
7801E0
F000F0
ENDCHAR
STARTCHAR 0079
ENCODING 121
SWIDTH 534 0
DWIDTH 23 0
BBX 22 32 1 -8
BITMAP
E0001C
700038
700038
780078
380070
3800F0
1C00E0
1C00E0
1E01C0
0E01C0
0E0380
070380
070780
078700
038700
038E00
01CE00
01DC00
01FC00
00FC00
00F800
007800
007000
007000
006000
00E000
00E000
01C000
01C000
038000
038000
070000
ENDCHAR
STARTCHAR 007A
ENCODING 122
SWIDTH 418 0
DWIDTH 18 0
BBX 17 24 0 0
BITMAP
FFFF00
FFFF00
FFFF00
000F00
000E00
001C00
003C00
007800
007000
00F000
01E000
01C000
03C000
078000
070000
0F0000
1E0000
1C0000
3C0000
780000
700000
FFFF80
FFFF80
FFFF80
ENDCHAR
STARTCHAR 007B
ENCODING 123
SWIDTH 348 0
DWIDTH 15 0
BBX 11 40 3 -8
BITMAP
01E0
07E0
07E0
0F00
0E00
0E00
0E00
0E00
0E00
0E00
0E00
0E00
0E00
0E00
0E00
0E00
1E00
3C00
F800
F000
F800
7C00
1C00
1E00
0E00
0E00
0E00
0E00
0E00
0E00
0E00
0E00
0E00
0E00
0E00
0E00
0F00
07E0
07E0
03E0
ENDCHAR
STARTCHAR 007C
ENCODING 124
SWIDTH 673 0
DWIDTH 29 0
BBX 3 44 13 -10
BITMAP
E0
E0
E0
E0
E0
E0
E0
E0
E0
E0
E0
E0
E0
E0
E0
E0
E0
E0
E0
E0
E0
E0
E0
E0
E0
E0
E0
E0
E0
E0
E0
E0
E0
E0
E0
E0
E0
E0
E0
E0
E0
E0
E0
E0
ENDCHAR
STARTCHAR 007D
ENCODING 125
SWIDTH 348 0
DWIDTH 15 0
BBX 11 40 1 -8
BITMAP
F800
FC00
FC00
1E00
0E00
0E00
0E00
0E00
0E00
0E00
0E00
0E00
0E00
0E00
0E00
0E00
0F00
0780
03E0
01E0
01E0
07C0
0700
0F00
0E00
0E00
0E00
0E00
0E00
0E00
0E00
0E00
0E00
0E00
0E00
0E00
1E00
FC00
FC00
F000
ENDCHAR
STARTCHAR 007E
ENCODING 126
SWIDTH 603 0
DWIDTH 26 0
BBX 20 6 3 8
BITMAP
1F0020
3FC060
7FF0F0
E0FFE0
C03FC0
400F80
ENDCHAR
STARTCHAR 00A0
ENCODING 160
SWIDTH 278 0
DWIDTH 12 0
BBX 0 0 0 0
BITMAP
ENDCHAR
STARTCHAR 00A3
ENCODING 163
SWIDTH 557 0
DWIDTH 24 0
BBX 24 33 0 0
BITMAP
007E00
01FF80
07FFE0
0F81F0
0E00F8
1E0078
1C003C
3C001C
38001C
380000
380000
380000
380000
380000
1C0000
FFFFE0
FFFFE0
FFFFE0
078000
03C000
01E000
00E007
00F007
007007
007007
007007
00700F
00700E
00E01E
00E07C
7FFFF8
7FFFF0
7FFF80
ENDCHAR
STARTCHAR 00A4
ENCODING 164
SWIDTH 557 0
DWIDTH 24 0
BBX 23 23 1 2
BITMAP
400004
E0000E
707C1C
39FF78
1FFFF0
0F83E0
0E00E0
1C0070
1C0070
380038
380038
380038
380038
380038
1C0070
1E0070
0E00E0
1F83F0
3FFFF8
79FF3C
F07C1C
E0000E
400004
ENDCHAR
STARTCHAR 00A6
ENCODING 166
SWIDTH 673 0
DWIDTH 29 0
BBX 3 37 13 -6
BITMAP
E0
E0
E0
E0
E0
E0
E0
E0
E0
E0
E0
E0
E0
E0
E0
00
00
00
00
00
00
00
E0
E0
E0
E0
E0
E0
E0
E0
E0
E0
E0
E0
E0
E0
E0
ENDCHAR
STARTCHAR 00A7
ENCODING 167
SWIDTH 603 0
DWIDTH 26 0
BBX 19 39 4 -6
BITMAP
01F800
07FE00
0FFF00
1E0F00
3C0780
380380
380000
380000
380000
3C0000
1E0000
1F8000
3FE000
3BF800
70FE00
E03F80
E00FC0
E003C0
E001E0
F000E0
7800E0
3E00E0
1F80E0
0FE1C0
03FBC0
00FF80
003F00
000F80
000380
0003C0
7001C0
7001C0
7001C0
3801C0
3C0380
1E0780
1FFF00
07FE00
01F800
ENDCHAR
STARTCHAR 00A8
ENCODING 168
SWIDTH 371 0
DWIDTH 16 0
BBX 10 6 3 28
BITMAP
E1C0
E1C0
E1C0
E1C0
E1C0
E1C0
ENDCHAR
STARTCHAR 00A9
ENCODING 169
SWIDTH 743 0
DWIDTH 32 0
BBX 32 35 0 -1
BITMAP
0007E000
003FFC00
00FFFF00
01F01FC0
07C003E0
0F0000F0
0E000070
1C03E038
381FF81C
303FFC0C
70781E0E
60700706
60E00706
E0C00307
C1C00003
C1800003
C1800003
C1800003
C1800003
C1800003
C1C00003
E0C00303
E0E00707
60F00706
70781E0E
303FFC0C
381FF81C
1C03C038
1E000078
0F0000F0
07C003E0
03F00FC0
00FFFF00
003FFC00
0007E000
ENDCHAR
STARTCHAR 00AB
ENCODING 171
SWIDTH 418 0
DWIDTH 18 0
BBX 15 18 2 4
BITMAP
0408
0E0E
0E1C
1C1C
3C38
3878
7870
70F0
F0E0
F0E0
70F0
7870
3878
3C38
1C1C
0E1C
0E0E
0408
ENDCHAR
STARTCHAR 00AC
ENCODING 172
SWIDTH 603 0
DWIDTH 26 0
BBX 22 12 2 4
BITMAP
FFFFFC
FFFFFC
FFFFFC
00001C
00001C
00001C
00001C
00001C
00001C
00001C
00001C
00001C
ENDCHAR
STARTCHAR 00AD
ENCODING 173
SWIDTH 325 0
DWIDTH 14 0
BBX 12 3 1 11
BITMAP
FFF0
FFF0
FFF0
ENDCHAR
STARTCHAR 00AE
ENCODING 174
SWIDTH 743 0
DWIDTH 32 0
BBX 32 35 0 -1
BITMAP
0007E000
003FFC00
00FFFF00
03F00FC0
07C003E0
0F0000F0
1E000078
1C000038
387FF01C
307FFC0E
707FFE0E
60600E06
E0600607
C0600603
C0600603
C0600E03
C07FFC03
C07FF003
C07FFC03
C0601E03
C0600E03
E0600607
60600606
60600606
7060060E
3860060C
3860061C
1C000038
0E000070
0F0000E0
07C003E0
01F80F80
00FFFF00
003FFC00
0007E000
ENDCHAR
STARTCHAR 00B0
ENCODING 176
SWIDTH 394 0
DWIDTH 17 0
BBX 13 14 2 18
BITMAP
0780
1FC0
3FE0
7070
E038
C018
C018
C018
E018
E038
7070
3FE0
1FC0
0700
ENDCHAR
STARTCHAR 00B1
ENCODING 177
SWIDTH 603 0
DWIDTH 26 0
BBX 21 24 3 -1
BITMAP
007000
007000
007000
007000
007000
007000
007000
007000
FFFFF8
FFFFF8
FFFFF8
007000
007000
007000
007000
007000
007000
007000
007000
000000
000000
FFFFF8
FFFFF8
FFFFF8
ENDCHAR
STARTCHAR 00B4
ENCODING 180
SWIDTH 371 0
DWIDTH 16 0
BBX 10 7 3 28
BITMAP
0180
07C0
0FC0
3F00
FC00
7000
4000
ENDCHAR
STARTCHAR 00B5
ENCODING 181
SWIDTH 603 0
DWIDTH 26 0
BBX 20 32 3 -9
BITMAP
E00070
E00070
E00070
E00070
E00070
E00070
E00070
E00070
E00070
E00070
E00070
E00070
E00070
E00070
E00070
E00070
E00070
F000F0
F000F0
F801F0
FC03F0
FF07F0
EFFF70
E7FE70
E1F000
E00000
E00000
E00000
E00000
E00000
E00000
E00000
ENDCHAR
STARTCHAR 00B6
ENCODING 182
SWIDTH 557 0
DWIDTH 24 0
BBX 23 37 1 -6
BITMAP
03FFFE
1FFFFE
3FF070
7FF070
7FF070
FFF070
FFF070
FFF070
FFF070
FFF070
FFF070
FFF070
FFF070
7FF070
3FF070
1FF070
07F070
007070
007070
007070
007070
007070
007070
007070
007070
007070
007070
007070
007070
007070
007070
007070
007070
007070
007070
007070
007070
ENDCHAR
STARTCHAR 00B7
ENCODING 183
SWIDTH 278 0
DWIDTH 12 0
BBX 3 6 4 8
BITMAP
E0
E0
E0
E0
E0
E0
ENDCHAR
STARTCHAR 00B8
ENCODING 184
SWIDTH 325 0
DWIDTH 14 0
BBX 8 10 3 -10
BITMAP
10
30
30
7E
23
03
C3
63
7E
1C
ENDCHAR
STARTCHAR 00BB
ENCODING 187
SWIDTH 418 0
DWIDTH 18 0
BBX 15 18 2 4
BITMAP
2040
E0E0
70E0
7070
3878
3C38
1C3C
1E1C
0E1E
0E1E
1E1C
1C3C
3C38
3878
7070
70E0
E0E0
2040
ENDCHAR
STARTCHAR 00C1
ENCODING 193
SWIDTH 743 0
DWIDTH 32 0
BBX 31 41 1 1
BITMAP
00003000
0000F000
0001F800
0007E000
001F8000
001E0000
00080000
00000000
00000000
00078000
0007C000
0007C000
000FE000
000EE000
001EF000
001C7000
003C7000
00383800
00383800
00783C00
00701C00
00F01E00
00E00E00
01E00E00
01C00F00
01C00700
03800780
03FFFF80
07FFFFC0
07FFFFC0
0F0001C0
0E0001E0
0E0000E0
1E0000F0
1C000070
3C000078
38000038
3800003C
7000003C
7000001C
F000001E
ENDCHAR
STARTCHAR 00C2
ENCODING 194
SWIDTH 743 0
DWIDTH 32 0
BBX 31 40 1 0
BITMAP
0007C000
000FE000
001EF000
003C7800
00F01E00
00000000
00000000
00000000
00078000
0007C000
0007C000
000FE000
000EE000
001EF000
001C7000
003C7000
00383800
00383800
00783C00
00701C00
00F01E00
00E00E00
01E00E00
01C00F00
01C00700
03C00780
03FFFF80
07FFFFC0
07FFFFC0
0F0001C0
0E0001E0
0E0000E0
1E0000F0
1C000070
3C000078
38000038
3800003C
7000003C
7000001C
F000001E
ENDCHAR
STARTCHAR 00C4
ENCODING 196
SWIDTH 743 0
DWIDTH 32 0
BBX 30 41 1 0
BITMAP
00387000
00387000
00387000
00387000
00387000
00387000
00000000
00000000
00000000
00078000
000FC000
000FC000
001FE000
001FE000
003CE000
003CF000
00387000
00787800
00703800
00F03C00
00E03C00
00E01C00
01E01E00
01C00E00
03C00F00
03800700
07800780
07FFFF80
07FFFF80
0FFFFFC0
0E0001C0
1E0001E0
1C0000E0
1C0000F0
380000F0
38000070
78000078
70000038
F000003C
E000001C
E000001C
ENDCHAR
STARTCHAR 00C7
ENCODING 199
SWIDTH 812 0
DWIDTH 35 0
BBX 31 43 2 -10
BITMAP
0007F000
003FFE00
00FFFF80
01F80FC0
07C003F0
0F8000F8
0F000078
1E00003C
3C00001E
38000000
78000000
70000000
70000000
F0000000
E0000000
E0000000
E0000000
E0000000
E0000000
E0000000
E0000000
70000000
70000000
78000000
38000000
3C00001E
1E00003C
1F000078
0F8000F0
07E001E0
01F80FC0
00FFFF80
003FFE00
0007E000
00030000
00030000
0007E000
00023000
00003000
00043000
00063000
0007E000
0001C000
ENDCHAR
STARTCHAR 00C9
ENCODING 201
SWIDTH 534 0
DWIDTH 23 0
BBX 17 41 3 1
BITMAP
001800
007800
01FC00
03F000
0FC000
0F0000
040000
000000
000000
FFFF80
FFFF80
FFFF80
E00000
E00000
E00000
E00000
E00000
E00000
E00000
E00000
E00000
E00000
E00000
FFFF80
FFFF80
FFFF80
E00000
E00000
E00000
E00000
E00000
E00000
E00000
E00000
E00000
E00000
E00000
E00000
FFFF80
FFFF80
FFFF80
ENDCHAR
STARTCHAR 00CB
ENCODING 203
SWIDTH 534 0
DWIDTH 23 0
BBX 17 41 3 0
BITMAP
0E3800
0E3800
0E3800
0E3800
0E3800
0E3800
000000
000000
000000
FFFF80
FFFF80
FFFF80
E00000
E00000
E00000
E00000
E00000
E00000
E00000
E00000
E00000
E00000
E00000
FFFF80
FFFF80
FFFF80
E00000
E00000
E00000
E00000
E00000
E00000
E00000
E00000
E00000
E00000
E00000
E00000
FFFF80
FFFF80
FFFF80
ENDCHAR
STARTCHAR 00CD
ENCODING 205
SWIDTH 232 0
DWIDTH 10 0
BBX 9 41 2 1
BITMAP
0100
0780
1F80
3E00
FC00
F000
4000
0000
0000
7000
7000
7000
7000
7000
7000
7000
7000
7000
7000
7000
7000
7000
7000
7000
7000
7000
7000
7000
7000
7000
7000
7000
7000
7000
7000
7000
7000
7000
7000
7000
7000
ENDCHAR
STARTCHAR 00CE
ENCODING 206
SWIDTH 232 0
DWIDTH 10 0
BBX 13 40 -2 0
BITMAP
0780
1FC0
3DE0
78F0
F038
0000
0000
0000
0700
0700
0700
0700
0700
0700
0700
0700
0700
0700
0700
0700
0700
0700
0700
0700
0700
0700
0700
0700
0700
0700
0700
0700
0700
0700
0700
0700
0700
0700
0700
0700
ENDCHAR
STARTCHAR 00D3
ENCODING 211
SWIDTH 859 0
DWIDTH 37 0
BBX 33 42 2 0
BITMAP
00000E0000
00003E0000
00007E0000
0001F80000
0003E00000
0003800000
0000000000
0000000000
0007F00000
003FFE0000
00FFFF8000
01F00FE000
07C001F000
0F8000F800
0E00007C00
1E00003C00
3C00001E00
3800000E00
7800000F00
7000000700
7000000700
E000000380
E000000380
E000000380
E000000380
E000000380
E000000380
E000000380
E000000380
7000000700
7000000700
7800000F00
3800000E00
3C00001E00
1E00003C00
0F00007800
078000F000
03E001E000
01F80FC000
00FFFF8000
003FFE0000
0007F00000
ENDCHAR
STARTCHAR 00D4
ENCODING 212
SWIDTH 859 0
DWIDTH 37 0
BBX 33 41 2 -1
BITMAP
0001E00000
0007F00000
000F780000
001E3C0000
003C0E0000
0000000000
0000000000
0007F00000
003FFE0000
00FFFF8000
01F00FE000
07C001F000
0F8000F800
0E00007C00
1E00003C00
3C00001E00
3800000E00
7800000F00
7000000700
7000000700
E000000380
E000000380
E000000380
E000000380
E000000380
E000000380
E000000380
E000000380
7000000700
7000000700
7800000F00
3800000E00
3C00001E00
1E00003C00
0F00007800
078000F000
03E001E000
01F80FC000
00FFFF8000
003FFE0000
0007F00000
ENDCHAR
STARTCHAR 00D5
ENCODING 213
SWIDTH 859 0
DWIDTH 37 0
BBX 33 42 2 -1
BITMAP
000F000000
003FC60000
007FFE0000
0031FE0000
00007C0000
0000000000
0000000000
0000000000
0007F00000
003FFE0000
00FFFF8000
01F00FE000
07C001F000
0F8000F800
0E00007C00
1E00003C00
3C00001E00
3800000E00
7800000F00
7000000700
7000000700
E000000380
E000000380
E000000380
E000000380
E000000380
E000000380
E000000380
E000000380
7000000700
7000000700
7800000F00
3800000E00
3C00001E00
1E00003C00
0F00007800
078000F000
03E001E000
01F80FC000
00FFFF8000
003FFE0000
0007F00000
ENDCHAR
STARTCHAR 00D6
ENCODING 214
SWIDTH 859 0
DWIDTH 37 0
BBX 33 42 2 -1
BITMAP
000E380000
000E380000
000E380000
000E380000
000E380000
000E380000
0000000000
0000000000
0007F00000
003FFE0000
00FFFF8000
01F00FE000
07C001F000
0F8000F800
0E00007C00
1E00003C00
3C00001E00
3800000E00
7800000F00
7000000700
7000000700
E000000380
E000000380
E000000380
E000000380
E000000380
E000000380
E000000380
E000000380
7000000700
7000000700
7800000700
3800000E00
3C00001E00
1E00003C00
0F00007800
078000F000
03E001E000
01F80FC000
00FFFF8000
003FFE0000
0007F00000
ENDCHAR
STARTCHAR 00D7
ENCODING 215
SWIDTH 603 0
DWIDTH 26 0
BBX 20 20 3 1
BITMAP
200040
7000E0
F801F0
7C03E0
3E07C0
1F0F80
0F9F00
07FE00
03FC00
01F800
01F800
03FC00
07FE00
0F9F00
1F0F80
3E07C0
7C03E0
F801F0
7000E0
200040
ENDCHAR
STARTCHAR 00DA
ENCODING 218
SWIDTH 650 0
DWIDTH 28 0
BBX 22 42 3 0
BITMAP
000100
000780
001F80
007E00
01FC00
00F000
00C000
000000
000000
E0001C
E0001C
E0001C
E0001C
E0001C
E0001C
E0001C
E0001C
E0001C
E0001C
E0001C
E0001C
E0001C
E0001C
E0001C
E0001C
E0001C
E0001C
E0001C
E0001C
E0001C
E0001C
E0001C
E0001C
F0001C
700038
700038
380070
3C00F0
1F03E0
0FFFC0
07FF00
00FC00
ENDCHAR
STARTCHAR 00DC
ENCODING 220
SWIDTH 650 0
DWIDTH 28 0
BBX 22 42 3 -1
BITMAP
038700
038700
038700
038700
038700
038700
000000
000000
000000
E0001C
E0001C
E0001C
E0001C
E0001C
E0001C
E0001C
E0001C
E0001C
E0001C
E0001C
E0001C
E0001C
E0001C
E0001C
E0001C
E0001C
E0001C
E0001C
E0001C
E0001C
E0001C
E0001C
E0001C
F0001C
700038
700038
380070
3C00F0
1F03E0
0FFFC0
07FF00
00FC00
ENDCHAR
STARTCHAR 00DD
ENCODING 221
SWIDTH 603 0
DWIDTH 26 0
BBX 25 41 0 1
BITMAP
0000C000
0003C000
0007E000
001F8000
007E0000
00780000
00200000
00000000
00000000
F0000780
70000700
78000F00
38000E00
3C001E00
1C001C00
1E003C00
0E003800
0F007800
07007000
0780F000
0380E000
03C1E000
01C1C000
01E3C000
00E38000
00F78000
00770000
003E0000
003E0000
001C0000
001C0000
001C0000
001C0000
001C0000
001C0000
001C0000
001C0000
001C0000
001C0000
001C0000
001C0000
ENDCHAR
STARTCHAR 00DF
ENCODING 223
SWIDTH 557 0
DWIDTH 24 0
BBX 19 34 3 -1
BITMAP
03E000
0FF800
1FFE00
3C1E00
780F00
700700
F00380
E00380
E00380
E00380
E00380
E00380
E00700
E00F00
E01E00
E1FC00
E1FE00
E1FF00
E00F80
E003C0
E001C0
E001E0
E000E0
E000E0
F800E0
F800E0
F800E0
FC01E0
FC01C0
EE03C0
EF8780
E7FF00
E3FE00
00F800
ENDCHAR
STARTCHAR 00E1
ENCODING 225
SWIDTH 673 0
DWIDTH 29 0
BBX 25 36 2 -1
BITMAP
00008000
00018000
0007C000
001F8000
007E0000
00F80000
00700000
00000000
00000000
00000000
003F0000
01FFC380
07FFF380
0FC0FB80
1E003F80
3C001F80
38000F80
78000F80
70000780
70000780
E0000380
E0000380
E0000380
E0000380
E0000380
E0000380
70000780
70000780
78000780
38000F80
3C001F80
1F003F80
0FC0FB80
07FFF380
01FFC380
003E0000
ENDCHAR
STARTCHAR 00E2
ENCODING 226
SWIDTH 673 0
DWIDTH 29 0
BBX 25 34 2 -1
BITMAP
001E0000
003F0000
00F3C000
01E1E000
03C0F000
00000000
00000000
00000000
003F0000
01FFC380
07FFF380
0FC0FB80
1E003F80
3C001F80
38000F80
78000F80
70000780
70000780
E0000380
E0000380
E0000380
E0000380
E0000380
E0000380
70000780
70000780
78000780
38000F80
3C001F80
1F003F80
0FC0FB80
07FFF380
01FFC380
003E0000
ENDCHAR
STARTCHAR 00E4
ENCODING 228
SWIDTH 673 0
DWIDTH 29 0
BBX 25 35 2 -1
BITMAP
00E38000
00E38000
00E38000
00E38000
00E38000
00E38000
00000000
00000000
00000000
007E0000
01FFC380
07FFF380
0F81FB80
1E007F80
3C001F80
38000F80
70000F80
70000780
F0000780
E0000380
E0000380
E0000380
E0000380
E0000380
E0000380
F0000780
70000780
70000780
38000F80
3C001F80
1E003F80
0F81FB80
07FFF380
01FFC380
007E0000
ENDCHAR
STARTCHAR 00E7
ENCODING 231
SWIDTH 650 0
DWIDTH 28 0
BBX 24 35 2 -10
BITMAP
003E00
01FFC0
07FFF0
0FC1F8
1E007C
3C001E
38001E
70000F
700000
700000
E00000
E00000
E00000
E00000
E00000
E00000
F00000
700000
78000F
38000E
3C001C
1E003C
0F80F8
07FFF0
03FFC0
007E00
003000
003000
007E00
002300
000300
006300
006300
003E00
001C00
ENDCHAR
STARTCHAR 00E9
ENCODING 233
SWIDTH 650 0
DWIDTH 28 0
BBX 24 35 2 0
BITMAP
000380
000F80
003F00
00FC00
00F800
00E000
000000
000000
000000
007E00
01FFC0
07FFE0
0F81F0
1E0078
3C003C
38001E
70000E
70000F
E00007
E00007
FFFFFF
FFFFFF
FFFFFF
E00000
E00000
600000
70000E
70000E
38001E
3C003C
1E0078
0F81F0
07FFE0
01FF80
007E00
ENDCHAR
STARTCHAR 00EB
ENCODING 235
SWIDTH 650 0
DWIDTH 28 0
BBX 24 35 2 -1
BITMAP
01C380
01C380
01C380
01C380
01C380
01C380
000000
000000
000000
007E00
01FFC0
07FFE0
0F81F0
1E0078
3C003C
38001E
70000E
700007
E00007
E00007
FFFFFF
FFFFFF
FFFFFF
E00000
E00000
E00000
70000F
70000E
38001E
3C003C
1E0078
0F81F0
07FFE0
01FF80
007E00
ENDCHAR
STARTCHAR 00ED
ENCODING 237
SWIDTH 209 0
DWIDTH 9 0
BBX 9 34 2 1
BITMAP
0380
0780
1F80
7E00
F800
E000
4000
0000
0000
0000
7000
7000
7000
7000
7000
7000
7000
7000
7000
7000
7000
7000
7000
7000
7000
7000
7000
7000
7000
7000
7000
7000
7000
7000
ENDCHAR
STARTCHAR 00EE
ENCODING 238
SWIDTH 209 0
DWIDTH 9 0
BBX 15 33 -3 0
BITMAP
07C0
0FE0
1EF0
3C78
F01E
0000
0000
0000
0000
0380
0380
0380
0380
0380
0380
0380
0380
0380
0380
0380
0380
0380
0380
0380
0380
0380
0380
0380
0380
0380
0380
0380
0380
ENDCHAR
STARTCHAR 00F3
ENCODING 243
SWIDTH 650 0
DWIDTH 28 0
BBX 24 35 2 0
BITMAP
0001C0
0007C0
001F80
003F00
007C00
007000
000000
000000
000000
007E00
01FF80
07FFE0
0F81F0
1E0078
3C003C
38001C
78000E
70000E
70000F
E00007
E00007
E00007
E00007
E00007
E00007
F0000F
70000E
78000E
38001C
3C003C
1E0078
0F81F0
07FFE0
01FF80
007E00
ENDCHAR
STARTCHAR 00F4
ENCODING 244
SWIDTH 650 0
DWIDTH 28 0
BBX 24 34 2 -1
BITMAP
003C00
007E00
00F700
03C3C0
0781E0
000000
000000
000000
007E00
01FF80
07FFE0
0F81F0
1E0078
3C003C
38001C
78000E
70000E
70000F
E00007
E00007
E00007
E00007
E00007
E00007
F0000F
70000E
78000E
38001C
3C003C
1E0078
0F81F0
07FFE0
01FF80
007E00
ENDCHAR
STARTCHAR 00F5
ENCODING 245
SWIDTH 650 0
DWIDTH 28 0
BBX 24 34 2 -1
BITMAP
01E000
07F840
07FFE0
021FE0
000780
000000
000000
000000
007E00
01FF80
07FFE0
0F81F0
1E0078
3C003C
38001C
78000E
70000E
70000F
E00007
E00007
E00007
E00007
E00007
E00007
F0000F
70000E
78000E
38001C
3C003C
1E0078
0F81F0
07FFE0
01FF80
007E00
ENDCHAR
STARTCHAR 00F6
ENCODING 246
SWIDTH 650 0
DWIDTH 28 0
BBX 24 35 2 -1
BITMAP
01C380
01C380
01C380
01C380
01C380
01C380
000000
000000
000000
007E00
01FF80
07FFE0
0F81F0
1E0078
3C003C
38001C
78000E
70000E
70000F
E00007
E00007
E00007
E00007
E00007
E00007
F0000F
70000E
78000E
38001C
3C003C
1E0078
0F81F0
07FFE0
01FF80
007E00
ENDCHAR
STARTCHAR 00F7
ENCODING 247
SWIDTH 603 0
DWIDTH 26 0
BBX 21 24 2 -1
BITMAP
007000
007000
007000
007000
007000
007000
000000
000000
000000
000000
FFFFF8
FFFFF8
FFFFF8
000000
000000
000000
000000
000000
007000
007000
007000
007000
007000
007000
ENDCHAR
STARTCHAR 00FA
ENCODING 250
SWIDTH 603 0
DWIDTH 26 0
BBX 20 35 3 0
BITMAP
000600
001F00
003E00
00FC00
01F000
01C000
000000
000000
000000
000000
E00070
E00070
E00070
E00070
E00070
E00070
E00070
E00070
E00070
E00070
E00070
E00070
E00070
E00070
E00070
E00070
E00070
F000F0
7000F0
7801F0
3803F0
3E0770
1FFF70
07FC70
01F000
ENDCHAR
STARTCHAR 00FC
ENCODING 252
SWIDTH 603 0
DWIDTH 26 0
BBX 20 35 3 -1
BITMAP
070E00
070E00
070E00
070E00
070E00
070E00
000000
000000
000000
000000
E00070
E00070
E00070
E00070
E00070
E00070
E00070
E00070
E00070
E00070
E00070
E00070
E00070
E00070
E00070
E00070
E00070
F000F0
7000F0
7001F0
3803F0
3E0770
1FFF70
0FFC70
01F000
ENDCHAR
STARTCHAR 00FD
ENCODING 253
SWIDTH 534 0
DWIDTH 23 0
BBX 22 42 1 -7
BITMAP
000300
000F80
003F00
007E00
01F800
00E000
008000
000000
000000
000000
E0001C
700038
700038
780078
380070
3800F0
1C00E0
1C00E0
1E01C0
0E01C0
0E03C0
070380
070780
078700
038700
038E00
01CE00
01DE00
01FC00
00FC00
00F800
007800
007000
007000
007000
00E000
00E000
01C000
01C000
038000
038000
078000
ENDCHAR
STARTCHAR 0100
ENCODING 256
SWIDTH 743 0
DWIDTH 32 0
BBX 31 39 1 0
BITMAP
00FFFE00
00FFFE00
00FFFE00
00000000
00000000
00000000
00000000
00078000
0007C000
0007C000
000FE000
000EE000
001EF000
001C7000
003C7000
00383800
00383800
00783C00
00701C00
00F01E00
00E00E00
01E00E00
01C00F00
01C00700
03C00780
03FFFF80
07FFFFC0
07FFFFC0
0F0001C0
0E0001E0
0E0000E0
1E0000F0
1C000070
3C000078
38000038
3800003C
7000003C
7000001C
F000001E
ENDCHAR
STARTCHAR 0101
ENCODING 257
SWIDTH 673 0
DWIDTH 29 0
BBX 25 33 2 -1
BITMAP
03FFF000
03FFF000
03FFF000
00000000
00000000
00000000
00000000
003F0000
01FFC380
07FFF380
0FC0FB80
1E003F80
3C001F80
38000F80
78000F80
70000780
70000780
E0000380
E0000380
E0000380
E0000380
E0000380
E0000380
70000780
70000780
78000780
38000F80
3C001F80
1F003F80
0FC0FB80
07FFF380
01FFC380
003E0000
ENDCHAR
STARTCHAR 0102
ENCODING 258
SWIDTH 743 0
DWIDTH 32 0
BBX 31 41 1 0
BITMAP
00E00E00
00781C00
007FFC00
003FF800
000FE000
00000000
00000000
00000000
00000000
00078000
0007C000
0007C000
000FE000
000EE000
001EF000
001C7000
003C7000
00383800
00383800
00783C00
00701C00
00F01E00
00E00E00
01E00E00
01C00F00
01C00700
03800780
03FFFF80
07FFFFC0
07FFFFC0
0F0001C0
0E0001E0
0E0000E0
1E0000F0
1C000070
3C000078
38000038
3800003C
7000003C
7000001C
F000001E
ENDCHAR
STARTCHAR 0103
ENCODING 259
SWIDTH 673 0
DWIDTH 29 0
BBX 25 34 2 -1
BITMAP
03807000
03C0F000
01FFE000
00FFC000
003F0000
00000000
00000000
00000000
003F0000
01FFC380
07FFF380
0FC0FB80
1E003F80
3C001F80
38000F80
78000F80
70000780
70000780
E0000380
E0000380
E0000380
E0000380
E0000380
E0000380
70000780
70000780
78000780
38000F80
3C001F80
1F003F80
0FC0FB80
07FFF380
01FFC380
003E0000
ENDCHAR
STARTCHAR 0104
ENCODING 260
SWIDTH 743 0
DWIDTH 32 0
BBX 32 40 1 -8
BITMAP
00078000
0007C000
000FC000
000FC000
001FE000
001CE000
001CF000
003C7000
00387800
00783800
00703800
00F03C00
00E01C00
00E01E00
01C00E00
01C00F00
03C00700
03800700
07FFFF80
07FFFF80
07FFFFC0
0E0001C0
0E0001E0
1E0000E0
1C0000E0
3C0000F0
38000070
38000078
78000038
7000003C
F000003C
E000001C
00000018
00000030
00000060
00000060
00000060
00000070
0000003F
0000001F
ENDCHAR
STARTCHAR 0105
ENCODING 261
SWIDTH 673 0
DWIDTH 29 0
BBX 26 33 2 -8
BITMAP
003F0000
01FFC380
07FFF380
0FC0FB80
1E003F80
3C001F80
38000F80
78000F80
70000780
70000780
E0000380
E0000380
E0000380
E0000380
E0000380
E0000380
70000780
70000780
78000780
38000F80
3C001F80
1F003F80
0FC0FB80
07FFF380
01FFC380
003E0700
00000C00
00001C00
00001800
00001800
00001C00
00000FC0
000007C0
ENDCHAR
STARTCHAR 0106
ENCODING 262
SWIDTH 812 0
DWIDTH 35 0
BBX 31 42 2 0
BITMAP
00000C00
00003E00
00007E00
0001F800
0007E000
00038000
00000000
00000000
0007F000
003FFE00
00FFFF80
01F80FC0
07E003F0
0F8000F8
0F00007C
1E00003C
3C00001E
38000000
78000000
70000000
70000000
F0000000
E0000000
E0000000
E0000000
E0000000
E0000000
E0000000
E0000000
70000000
70000000
78000000
38000000
3C00001E
1E00003C
0F000078
0F8000F8
07E001F0
01F80FC0
00FFFF80
003FFE00
0007F000
ENDCHAR
STARTCHAR 0107
ENCODING 263
SWIDTH 650 0
DWIDTH 28 0
BBX 24 35 2 0
BITMAP
000380
000F80
003F00
00FE00
00F800
00E000
000000
000000
000000
003E00
01FFC0
07FFF0
0FC0F8
1F003C
3C001E
38000F
780007
700000
700000
E00000
E00000
E00000
E00000
E00000
E00000
F00000
700000
780007
38000F
3C001E
1F003C
0FC0F8
07FFF0
01FFC0
003F00
ENDCHAR
STARTCHAR 010C
ENCODING 268
SWIDTH 812 0
DWIDTH 35 0
BBX 31 41 2 -1
BITMAP
003C0F00
001E1E00
000F3C00
0003F000
0001E000
00000000
00000000
0007F000
003FFE00
00FFFF80
01F80FC0
07E003F0
0F8000F8
0F00007C
1E00003C
3C00001E
38000000
78000000
70000000
70000000
F0000000
E0000000
E0000000
E0000000
E0000000
E0000000
E0000000
E0000000
70000000
70000000
78000000
38000000
3C00001E
1E00003C
0F000078
0F8000F8
07E001F0
01F80FC0
00FFFF80
003FFE00
0007F000
ENDCHAR
STARTCHAR 010D
ENCODING 269
SWIDTH 650 0
DWIDTH 28 0
BBX 24 34 2 -1
BITMAP
0781E0
03C3C0
01EF00
007E00
003C00
000000
000000
000000
003E00
01FFC0
07FFF0
0FC0F8
1F003C
3C001E
38000F
780007
700000
700000
E00000
E00000
E00000
E00000
E00000
E00000
F00000
700000
780007
38000F
3C001E
1F003C
0FC0F8
07FFF0
01FFC0
003F00
ENDCHAR
STARTCHAR 010E
ENCODING 270
SWIDTH 743 0
DWIDTH 32 0
BBX 27 40 3 0
BITMAP
1E078000
0F0F0000
079E0000
01F80000
00F00000
00000000
00000000
00000000
FFFC0000
FFFFC000
FFFFF000
E003F800
E0007C00
E0001E00
E0000F00
E0000780
E0000380
E00003C0
E00001C0
E00001C0
E00000E0
E00000E0
E00000E0
E00000E0
E00000E0
E00000E0
E00000E0
E00000E0
E00001C0
E00001C0
E00003C0
E0000380
E0000780
E0000F00
E0001E00
E0007C00
E003F800
FFFFE000
FFFF8000
FFFC0000
ENDCHAR
STARTCHAR 010F
ENCODING 271
SWIDTH 766 0
DWIDTH 33 0
BBX 32 33 2 -1
BITMAP
00000387
00000387
0000038E
0000038E
0000038C
0000039C
0000039C
003F03B8
01FFC380
07FFF380
0FC0FB80
1E003F80
3C001F80
38000F80
78000F80
70000780
70000780
E0000380
E0000380
E0000380
E0000380
E0000380
E0000380
70000780
70000780
78000780
38000F80
3C001F80
1F003F80
0FC0FB80
07FFF380
01FFC380
003E0000
ENDCHAR
STARTCHAR 0110
ENCODING 272
SWIDTH 789 0
DWIDTH 34 0
BBX 30 32 2 0
BITMAP
1FFF8000
1FFFF800
1FFFFE00
1C007F00
1C000F80
1C0003C0
1C0001E0
1C0000F0
1C000070
1C000078
1C000038
1C000038
1C00001C
1C00001C
FFFE001C
FFFE001C
FFFE001C
1C00001C
1C00001C
1C00001C
1C000038
1C000038
1C000078
1C000070
1C0000F0
1C0001E0
1C0003C0
1C000F80
1C007F00
1FFFFE00
1FFFF800
1FFF8000
ENDCHAR
STARTCHAR 0111
ENCODING 273
SWIDTH 696 0
DWIDTH 30 0
BBX 28 33 2 -1
BITMAP
00000380
00000380
00000380
0000FFF0
0000FFF0
0000FFF0
0000FFF0
003F0380
01FFC380
07FFF380
0FC0FB80
1E003F80
3C001F80
38000F80
78000F80
70000780
70000780
E0000380
E0000380
E0000380
E0000380
E0000380
E0000380
70000780
70000780
78000780
38000F80
3C001F80
1F003F80
0FC0FB80
07FFF380
01FFC380
003E0000
ENDCHAR
STARTCHAR 0112
ENCODING 274
SWIDTH 534 0
DWIDTH 23 0
BBX 17 39 3 0
BITMAP
7FFF00
7FFF00
7FFF00
000000
000000
000000
000000
FFFF80
FFFF80
FFFF80
E00000
E00000
E00000
E00000
E00000
E00000
E00000
E00000
E00000
E00000
E00000
FFFF80
FFFF80
FFFF80
E00000
E00000
E00000
E00000
E00000
E00000
E00000
E00000
E00000
E00000
E00000
E00000
FFFF80
FFFF80
FFFF80
ENDCHAR
STARTCHAR 0113
ENCODING 275
SWIDTH 650 0
DWIDTH 28 0
BBX 24 33 2 -1
BITMAP
07FFE0
07FFE0
07FFE0
000000
000000
000000
000000
007E00
01FFC0
07FFE0
0F81F0
1E0078
3C003C
38001E
70000E
70000F
E00007
E00007
FFFFFF
FFFFFF
FFFFFF
E00000
E00000
600000
70000E
70000E
38001E
3C003C
1E0078
0F81F0
07FFE0
01FF80
007E00
ENDCHAR
STARTCHAR 0116
ENCODING 278
SWIDTH 534 0
DWIDTH 23 0
BBX 17 41 3 0
BITMAP
01C000
01C000
01C000
01C000
01C000
01C000
000000
000000
000000
FFFF80
FFFF80
FFFF80
E00000
E00000
E00000
E00000
E00000
E00000
E00000
E00000
E00000
E00000
E00000
FFFF80
FFFF80
FFFF80
E00000
E00000
E00000
E00000
E00000
E00000
E00000
E00000
E00000
E00000
E00000
E00000
FFFF80
FFFF80
FFFF80
ENDCHAR
STARTCHAR 0117
ENCODING 279
SWIDTH 650 0
DWIDTH 28 0
BBX 24 35 2 -1
BITMAP
003800
003800
003800
003800
003800
003800
000000
000000
000000
007C00
03FF80
07FFE0
0F83F0
1E00F8
3C0038
38001C
70001C
70000E
E0000E
E0000E
FFFFFF
FFFFFF
FFFFFF
E00000
E00000
E00000
70000E
70001C
38001C
3C0038
1E00F0
0F83F0
07FFC0
03FF80
007C00
ENDCHAR
STARTCHAR 0118
ENCODING 280
SWIDTH 534 0
DWIDTH 23 0
BBX 18 40 3 -8
BITMAP
FFFFC0
FFFFC0
FFFFC0
E00000
E00000
E00000
E00000
E00000
E00000
E00000
E00000
E00000
E00000
E00000
FFFF80
FFFF80
FFFF80
E00000
E00000
E00000
E00000
E00000
E00000
E00000
E00000
E00000
E00000
E00000
E00000
FFFFC0
FFFFC0
FFFFC0
000700
000C00
001C00
001800
001800
001C00
000FC0
0007C0
ENDCHAR
STARTCHAR 0119
ENCODING 281
SWIDTH 650 0
DWIDTH 28 0
BBX 24 33 2 -8
BITMAP
007E00
01FFC0
07FFE0
0F81F0
1E0078
3C003C
38001E
70000E
70000F
600007
E00007
FFFFFF
FFFFFF
FFFFFF
E00000
E00000
600000
70000F
70000E
38001E
3C003C
1E0078
0F81F0
07FFE0
01FF80
007E00
001800
003800
003000
003000
003800
001F80
000F80
ENDCHAR
STARTCHAR 011A
ENCODING 282
SWIDTH 534 0
DWIDTH 23 0
BBX 17 40 3 0
BITMAP
781E00
3C3C00
0F7800
07E000
03C000
000000
000000
000000
FFFF80
FFFF80
FFFF80
E00000
E00000
E00000
E00000
E00000
E00000
E00000
E00000
E00000
E00000
E00000
FFFF80
FFFF80
FFFF80
E00000
E00000
E00000
E00000
E00000
E00000
E00000
E00000
E00000
E00000
E00000
E00000
FFFF80
FFFF80
FFFF80
ENDCHAR
STARTCHAR 011B
ENCODING 283
SWIDTH 650 0
DWIDTH 28 0
BBX 24 34 2 -1
BITMAP
0781E0
03C3C0
01EF00
007E00
003C00
000000
000000
000000
007E00
01FFC0
07FFE0
0F81F0
1E0078
3C003C
38001E
70000E
70000F
E00007
E00007
FFFFFF
FFFFFF
FFFFFF
E00000
E00000
600000
70000E
70000E
38001E
3C003C
1E0078
0F81F0
07FFE0
01FF80
007E00
ENDCHAR
STARTCHAR 0122
ENCODING 290
SWIDTH 882 0
DWIDTH 38 0
BBX 34 43 2 -10
BITMAP
0007F80000
003FFF0000
00FFFFC000
01F807E000
03C001F800
0F80007C00
0F00003C00
1E00001E00
3C00000F00
3800000000
7800000000
7000000000
7000000000
E000000000
E000000000
E000000000
E000000000
E000000000
E00FFFFFC0
E00FFFFFC0
F00FFFFF80
7000000380
7000000780
7800000780
3800000F00
3C00000E00
1E00001E00
0F00003C00
0780007800
03E001F000
01F807E000
00FFFF8000
003FFE0000
0007F00000
0000000000
0000000000
0000E00000
0001C00000
0001C00000
0003800000
0003800000
0007000000
0007000000
ENDCHAR
STARTCHAR 0123
ENCODING 291
SWIDTH 673 0
DWIDTH 29 0
BBX 24 45 2 -10
BITMAP
000700
000E00
000E00
001C00
001C00
001800
003800
003800
000000
000000
007E00
01FF87
07FFE7
0F81F7
1E007F
3C003F
38001F
78001F
70000F
70000F
E00007
E00007
E00007
E00007
E00007
E00007
F0000F
70000F
78000F
38001F
3C003F
1E007F
0F81F7
07FFE7
01FF87
007E07
700007
78000E
3C000E
3C001E
1F003C
0FC0F8
07FFF0
01FFE0
003F00
ENDCHAR
STARTCHAR 012A
ENCODING 298
SWIDTH 232 0
DWIDTH 10 0
BBX 13 39 -2 0
BITMAP
FFF8
FFF8
FFF8
0000
0000
0000
0000
0700
0700
0700
0700
0700
0700
0700
0700
0700
0700
0700
0700
0700
0700
0700
0700
0700
0700
0700
0700
0700
0700
0700
0700
0700
0700
0700
0700
0700
0700
0700
0700
ENDCHAR
STARTCHAR 012B
ENCODING 299
SWIDTH 209 0
DWIDTH 9 0
BBX 13 32 -2 0
BITMAP
FFF8
FFF8
FFF8
0000
0000
0000
0000
0000
0700
0700
0700
0700
0700
0700
0700
0700
0700
0700
0700
0700
0700
0700
0700
0700
0700
0700
0700
0700
0700
0700
0700
0700
ENDCHAR
STARTCHAR 012E
ENCODING 302
SWIDTH 232 0
DWIDTH 10 0
BBX 6 40 1 -8
BITMAP
38
38
38
38
38
38
38
38
38
38
38
38
38
38
38
38
38
38
38
38
38
38
38
38
38
38
38
38
38
38
38
38
30
60
C0
C0
C0
E0
7C
3C
ENDCHAR
STARTCHAR 012F
ENCODING 303
SWIDTH 209 0
DWIDTH 9 0
BBX 6 40 1 -8
BITMAP
38
38
38
38
38
38
00
00
38
38
38
38
38
38
38
38
38
38
38
38
38
38
38
38
38
38
38
38
38
38
38
38
70
60
C0
C0
C0
E0
7C
3C
ENDCHAR
STARTCHAR 0136
ENCODING 310
SWIDTH 580 0
DWIDTH 25 0
BBX 21 41 3 -9
BITMAP
E00078
E00078
E000F0
E001E0
E003C0
E00780
E00780
E00F00
E01E00
E03C00
E07800
E07000
E0F000
E1E000
E3C000
E78000
E7C000
EFE000
FFE000
FCF000
F87800
F03C00
F03C00
E01E00
E00F00
E00780
E003C0
E003C0
E001E0
E000F0
E00078
E00078
000000
000000
00E000
01C000
01C000
038000
038000
070000
070000
ENDCHAR
STARTCHAR 0137
ENCODING 311
SWIDTH 510 0
DWIDTH 22 0
BBX 18 41 3 -9
BITMAP
E00000
E00000
E00000
E00000
E00000
E00000
E00000
E00000
E003C0
E00780
E00F00
E01E00
E01C00
E03C00
E07800
E0F000
E0E000
E1E000
E3C000
E78000
E78000
EFC000
FFE000
FCE000
F8F000
F07800
F03C00
E01E00
E00F00
E00F00
E00780
E003C0
000000
000000
018000
038000
030000
070000
060000
0E0000
0C0000
ENDCHAR
STARTCHAR 0139
ENCODING 313
SWIDTH 464 0
DWIDTH 20 0
BBX 16 41 4 1
BITMAP
0040
01E0
07E0
0FC0
3F00
3C00
1000
0000
0000
E000
E000
E000
E000
E000
E000
E000
E000
E000
E000
E000
E000
E000
E000
E000
E000
E000
E000
E000
E000
E000
E000
E000
E000
E000
E000
E000
E000
E000
FFFF
FFFF
FFFF
ENDCHAR
STARTCHAR 013A
ENCODING 314
SWIDTH 209 0
DWIDTH 9 0
BBX 10 41 1 1
BITMAP
0180
03C0
0FC0
3F00
FC00
7000
6000
0000
0000
3800
3800
3800
3800
3800
3800
3800
3800
3800
3800
3800
3800
3800
3800
3800
3800
3800
3800
3800
3800
3800
3800
3800
3800
3800
3800
3800
3800
3800
3800
3800
3800
ENDCHAR
STARTCHAR 013B
ENCODING 315
SWIDTH 464 0
DWIDTH 20 0
BBX 16 42 4 -10
BITMAP
E000
E000
E000
E000
E000
E000
E000
E000
E000
E000
E000
E000
E000
E000
E000
E000
E000
E000
E000
E000
E000
E000
E000
E000
E000
E000
E000
E000
E000
FFFF
FFFF
FFFF
0000
0000
0000
0380
0380
0700
0700
0E00
0E00
1C00
ENDCHAR
STARTCHAR 013C
ENCODING 316
SWIDTH 209 0
DWIDTH 9 0
BBX 6 42 0 -10
BITMAP
1C
1C
1C
1C
1C
1C
1C
1C
1C
1C
1C
1C
1C
1C
1C
1C
1C
1C
1C
1C
1C
1C
1C
1C
1C
1C
1C
1C
1C
1C
1C
1C
00
00
00
1C
1C
38
38
70
70
E0
ENDCHAR
STARTCHAR 013D
ENCODING 317
SWIDTH 464 0
DWIDTH 20 0
BBX 16 32 4 0
BITMAP
E007
E00E
E00E
E01C
E01C
E018
E038
E030
E000
E000
E000
E000
E000
E000
E000
E000
E000
E000
E000
E000
E000
E000
E000
E000
E000
E000
E000
E000
E000
FFFF
FFFF
FFFF
ENDCHAR
STARTCHAR 013E
ENCODING 318
SWIDTH 255 0
DWIDTH 11 0
BBX 10 32 3 0
BITMAP
E1C0
E1C0
E380
E380
E300
E700
E700
EE00
E000
E000
E000
E000
E000
E000
E000
E000
E000
E000
E000
E000
E000
E000
E000
E000
E000
E000
E000
E000
E000
E000
E000
E000
ENDCHAR
STARTCHAR 0141
ENCODING 321
SWIDTH 510 0
DWIDTH 22 0
BBX 19 32 3 0
BITMAP
1C0000
1C0000
1C0000
1C0000
1C0000
1C0000
1C0000
1C0000
1C0800
1C1800
1C7800
1CF000
1FE000
1FC000
1F0000
3E0000
7C0000
FC0000
FC0000
DC0000
1C0000
1C0000
1C0000
1C0000
1C0000
1C0000
1C0000
1C0000
1C0000
1FFFE0
1FFFE0
1FFFE0
ENDCHAR
STARTCHAR 0142
ENCODING 322
SWIDTH 301 0
DWIDTH 13 0
BBX 9 32 2 0
BITMAP
1C00
1C00
1C00
1C00
1C00
1C00
1C00
1C00
1C00
1C00
1C80
1D80
1F80
1F00
1E00
3C00
FC00
FC00
DC00
1C00
1C00
1C00
1C00
1C00
1C00
1C00
1C00
1C00
1C00
1C00
1C00
1C00
ENDCHAR
STARTCHAR 0143
ENCODING 323
SWIDTH 743 0
DWIDTH 32 0
BBX 25 41 3 1
BITMAP
0000C000
0003C000
000FE000
001F8000
007E0000
00780000
00200000
00000000
00000000
F0000380
F8000380
FC000380
FC000380
FE000380
EF000380
E7800380
E7800380
E3C00380
E1E00380
E0E00380
E0F00380
E0780380
E0380380
E03C0380
E01E0380
E00E0380
E00F0380
E0078380
E0038380
E003C380
E001E380
E000E380
E000F380
E0007B80
E0003B80
E0003F80
E0001F80
E0000F80
E0000F80
E0000780
E0000380
ENDCHAR
STARTCHAR 0144
ENCODING 324
SWIDTH 603 0
DWIDTH 26 0
BBX 21 34 3 1
BITMAP
000700
001F80
007F00
00FC00
01F000
01C000
000000
000000
000000
00FC00
E3FF00
EFFF80
FF07C0
FC01E0
F800F0
F00070
F00078
E00038
E00038
E00038
E00038
E00038
E00038
E00038
E00038
E00038
E00038
E00038
E00038
E00038
E00038
E00038
E00038
E00038
ENDCHAR
STARTCHAR 0145
ENCODING 325
SWIDTH 743 0
DWIDTH 32 0
BBX 25 41 3 -9
BITMAP
F0000380
F8000380
FC000380
FC000380
FE000380
EF000380
E7800380
E7800380
E3C00380
E1E00380
E0E00380
E0F00380
E0780380
E0380380
E03C0380
E01E0380
E00E0380
E00F0380
E0078380
E0038380
E003C380
E001E380
E000E380
E000F380
E0007B80
E0003B80
E0003F80
E0001F80
E0000F80
E0000F80
E0000780
E0000380
00000000
00000000
001C0000
001C0000
00380000
00380000
00700000
00700000
00E00000
ENDCHAR
STARTCHAR 0146
ENCODING 326
SWIDTH 603 0
DWIDTH 26 0
BBX 21 34 3 -9
BITMAP
00FC00
E3FF00
EFFF80
FF07C0
FC01E0
F800F0
F00070
F00078
E00038
E00038
E00038
E00038
E00038
E00038
E00038
E00038
E00038
E00038
E00038
E00038
E00038
E00038
E00038
E00038
E00038
000000
000000
007000
007000
00E000
00E000
01C000
01C000
038000
ENDCHAR
STARTCHAR 0147
ENCODING 327
SWIDTH 743 0
DWIDTH 32 0
BBX 25 40 3 0
BITMAP
0781E000
01E3C000
00F78000
007F0000
003C0000
00000000
00000000
00000000
F0000380
F8000380
FC000380
FC000380
FE000380
EF000380
E7800380
E7800380
E3C00380
E1E00380
E0E00380
E0F00380
E0780380
E0380380
E03C0380
E01E0380
E00E0380
E00F0380
E0078380
E0038380
E003C380
E001E380
E000E380
E000F380
E0007B80
E0003B80
E0003F80
E0001F80
E0000F80
E0000F80
E0000780
E0000380
ENDCHAR
STARTCHAR 0148
ENCODING 328
SWIDTH 603 0
DWIDTH 26 0
BBX 21 33 3 0
BITMAP
1E0780
0F0F00
03DE00
01FC00
00F000
000000
000000
000000
00FC00
E3FF00
EFFF80
FF07C0
FC01E0
F800F0
F00070
F00078
E00038
E00038
E00038
E00038
E00038
E00038
E00038
E00038
E00038
E00038
E00038
E00038
E00038
E00038
E00038
E00038
E00038
ENDCHAR
STARTCHAR 014C
ENCODING 332
SWIDTH 859 0
DWIDTH 37 0
BBX 33 40 2 -1
BITMAP
007FFF0000
007FFF0000
007FFF0000
0000000000
0000000000
0000000000
0007F00000
003FFE0000
00FFFF8000
01F00FE000
07C001F000
0F8000F800
0E00007C00
1E00003C00
3C00001E00
3800000E00
7800000F00
7000000700
7000000700
E000000380
E000000380
E000000380
E000000380
E000000380
E000000380
E000000380
E000000380
7000000700
7000000700
7800000F00
3800000E00
3C00001E00
1E00003C00
0F00007800
078000F000
03E001E000
01F80FC000
00FFFF8000
003FFE0000
0007F00000
ENDCHAR
STARTCHAR 014D
ENCODING 333
SWIDTH 650 0
DWIDTH 28 0
BBX 24 33 2 -1
BITMAP
07FFE0
07FFE0
07FFE0
000000
000000
000000
000000
007E00
01FF80
07FFE0
0F81F0
1E0078
3C003C
38001C
78000E
70000E
70000F
E00007
E00007
E00007
E00007
E00007
E00007
F0000F
70000E
78000E
38001C
3C003C
1E0078
0F81F0
07FFE0
01FF80
007E00
ENDCHAR
STARTCHAR 0150
ENCODING 336
SWIDTH 859 0
DWIDTH 37 0
BBX 33 42 2 0
BITMAP
0000306000
0000F0F000
0001E1E000
0003C3C000
00078F0000
000F0E0000
00060C0000
0000000000
0007F00000
003FFE0000
00FFFF8000
01F00FE000
07C001F000
0F8000F800
0E00007C00
1E00003C00
3C00001E00
3800000E00
7800000F00
7000000700
7000000700
E000000380
E000000380
E000000380
E000000380
E000000380
E000000380
E000000380
E000000380
7000000700
7000000700
7800000F00
3800000E00
3C00001E00
1E00003C00
0F00007800
078000F000
03E001E000
01F80FC000
00FFFF8000
003FFE0000
0007F00000
ENDCHAR
STARTCHAR 0151
ENCODING 337
SWIDTH 650 0
DWIDTH 28 0
BBX 24 36 2 -1
BITMAP
000408
000C1C
001E3C
003C78
0078F0
01E1E0
01C3C0
008100
000000
000000
007E00
01FF80
07FFE0
0F81F0
1E0078
3C003C
38001C
78000E
70000E
70000F
E00007
E00007
E00007
E00007
E00007
E00007
F0000F
70000E
78000E
38001C
3C003C
1E0078
0F81F0
07FFE0
01FF80
007E00
ENDCHAR
STARTCHAR 0154
ENCODING 340
SWIDTH 603 0
DWIDTH 26 0
BBX 21 41 3 1
BITMAP
000C00
001C00
007E00
01F800
07E000
038000
030000
000000
000000
FFF800
FFFF00
FFFFC0
E007E0
E001E0
E000F0
E00070
E00038
E00038
E00038
E00038
E00038
E00038
E00070
E000F0
E001F0
E007E0
E3FFC0
E1FF80
E0FC00
E07000
E07800
E03C00
E01C00
E01E00
E00F00
E00780
E00380
E003C0
E001E0
E000E0
E000F0
ENDCHAR
STARTCHAR 0155
ENCODING 341
SWIDTH 301 0
DWIDTH 13 0
BBX 11 34 3 0
BITMAP
0040
00E0
03E0
0FC0
3F00
3E00
3800
0000
0000
0000
E3C0
E7C0
EFC0
FE00
F800
F000
F000
E000
E000
E000
E000
E000
E000
E000
E000
E000
E000
E000
E000
E000
E000
E000
E000
E000
ENDCHAR
STARTCHAR 0156
ENCODING 342
SWIDTH 603 0
DWIDTH 26 0
BBX 21 41 3 -9
BITMAP
FFF800
FFFF00
FFFFC0
E007E0
E001E0
E000F0
E00070
E00038
E00038
E00038
E00038
E00038
E00038
E00070
E000F0
E001F0
E007E0
E3FFC0
E1FF80
E0FC00
E07000
E07800
E03C00
E01C00
E01E00
E00F00
E00780
E00380
E003C0
E001E0
E000F0
E000F0
000000
000000
006000
00E000
00C000
01C000
018000
038000
038000
ENDCHAR
STARTCHAR 0157
ENCODING 343
SWIDTH 301 0
DWIDTH 13 0
BBX 12 34 1 -10
BITMAP
38F0
39F0
3BF0
3F80
3E00
3C00
3C00
3800
3800
3800
3800
3800
3800
3800
3800
3800
3800
3800
3800
3800
3800
3800
3800
3800
0000
0000
0000
1C00
3800
3800
7000
7000
E000
E000
ENDCHAR
STARTCHAR 0158
ENCODING 344
SWIDTH 603 0
DWIDTH 26 0
BBX 21 40 3 0
BITMAP
1E0700
0F1E00
07BC00
03F800
00F000
000000
000000
000000
FFF800
FFFF00
FFFFC0
E007E0
E001E0
E000F0
E00070
E00038
E00038
E00038
E00038
E00038
E00038
E00070
E000F0
E001F0
E007E0
E3FFC0
E1FF80
E0FC00
E07000
E07800
E03C00
E01C00
E01E00
E00F00
E00780
E00380
E003C0
E001E0
E000E0
E000F0
ENDCHAR
STARTCHAR 0159
ENCODING 345
SWIDTH 301 0
DWIDTH 13 0
BBX 14 33 1 0
BITMAP
F03C
7870
3DE0
1FC0
0780
0000
0000
0000
0000
38F0
39F0
3BF0
3F80
3E00
3C00
3C00
3800
3800
3800
3800
3800
3800
3800
3800
3800
3800
3800
3800
3800
3800
3800
3800
3800
ENDCHAR
STARTCHAR 015A
ENCODING 346
SWIDTH 487 0
DWIDTH 21 0
BBX 19 42 1 0
BITMAP
001C00
003C00
00FC00
03F000
07C000
038000
020000
000000
01F000
07FC00
0FFF00
1E0F00
3C0780
380380
7003C0
7001C0
7001C0
700000
700000
780000
3C0000
3E0000
1FC000
0FF800
03FE00
007F00
000F80
0007C0
0001C0
0001E0
0000E0
0000E0
E000E0
E000E0
F000E0
7001C0
7801C0
3803C0
3E0F80
1FFF00
07FC00
01F000
ENDCHAR
STARTCHAR 015B
ENCODING 347
SWIDTH 394 0
DWIDTH 17 0
BBX 15 36 1 -1
BITMAP
0010
0070
01F8
03F0
0FC0
1F00
0C00
0800
0000
0000
0380
0FF0
1FF8
3C78
783C
701C
701C
7000
7800
7C00
3F00
1FC0
0FF0
01F8
007C
001E
001E
000E
E00E
E00E
F00E
701C
783C
3FF8
1FF0
03C0
ENDCHAR
STARTCHAR 0160
ENCODING 352
SWIDTH 487 0
DWIDTH 21 0
BBX 19 41 1 -1
BITMAP
1C0F00
0F1E00
07BC00
03F800
01E000
000000
000000
01F000
07FC00
0FFF00
1E0F00
3C0780
380380
7003C0
7001C0
7001C0
700000
700000
780000
3C0000
3E0000
1FC000
0FF800
03FE00
007F00
000F80
0007C0
0001C0
0001E0
0000E0
0000E0
E000E0
E000E0
F000E0
7001C0
7801C0
3803C0
3E0F80
1FFF00
07FC00
01F000
ENDCHAR
STARTCHAR 0161
ENCODING 353
SWIDTH 394 0
DWIDTH 17 0
BBX 15 34 1 -1
BITMAP
F03C
7C78
1EF0
0FE0
07C0
0000
0000
0000
0380
0FF0
1FF8
3C78
783C
701C
701C
7000
7800
7C00
3F00
1FC0
0FF0
01F8
007C
001E
001E
000E
E00E
E00E
F00E
701C
783C
3FF8
1FF0
03C0
ENDCHAR
STARTCHAR 0162
ENCODING 354
SWIDTH 418 0
DWIDTH 18 0
BBX 17 42 1 -10
BITMAP
FFFF80
FFFF80
FFFF80
01C000
01C000
01C000
01C000
01C000
01C000
01C000
01C000
01C000
01C000
01C000
01C000
01C000
01C000
01C000
01C000
01C000
01C000
01C000
01C000
01C000
01C000
01C000
01C000
01C000
01C000
01C000
01C000
01C000
000000
000000
000000
01C000
01C000
038000
038000
070000
070000
0E0000
ENDCHAR
STARTCHAR 0163
ENCODING 355
SWIDTH 348 0
DWIDTH 15 0
BBX 14 42 1 -10
BITMAP
0700
0700
0700
0700
0700
0700
0700
0700
FFFC
FFFC
FFFC
0700
0700
0700
0700
0700
0700
0700
0700
0700
0700
0700
0700
0700
0700
0700
0700
0700
0700
0700
0700
0700
0000
0000
0000
0300
0700
0600
0E00
0C00
1C00
1800
ENDCHAR
STARTCHAR 0164
ENCODING 356
SWIDTH 418 0
DWIDTH 18 0
BBX 17 40 1 0
BITMAP
781E00
1E3C00
0F7800
07F000
03C000
000000
000000
000000
FFFF80
FFFF80
FFFF80
01C000
01C000
01C000
01C000
01C000
01C000
01C000
01C000
01C000
01C000
01C000
01C000
01C000
01C000
01C000
01C000
01C000
01C000
01C000
01C000
01C000
01C000
01C000
01C000
01C000
01C000
01C000
01C000
01C000
ENDCHAR
STARTCHAR 0165
ENCODING 357
SWIDTH 348 0
DWIDTH 15 0
BBX 16 34 1 0
BITMAP
0007
0007
070E
070E
070C
071C
071C
0738
0700
0700
FFFC
FFFC
FFFC
0700
0700
0700
0700
0700
0700
0700
0700
0700
0700
0700
0700
0700
0700
0700
0700
0700
0700
0700
0700
0700
ENDCHAR
STARTCHAR 016A
ENCODING 362
SWIDTH 650 0
DWIDTH 28 0
BBX 22 40 3 -1
BITMAP
1FFFE0
1FFFE0
1FFFE0
000000
000000
000000
000000
E0001C
E0001C
E0001C
E0001C
E0001C
E0001C
E0001C
E0001C
E0001C
E0001C
E0001C
E0001C
E0001C
E0001C
E0001C
E0001C
E0001C
E0001C
E0001C
E0001C
E0001C
E0001C
E0001C
E0001C
F0001C
700038
700038
380070
3C00F0
1F03E0
0FFFC0
07FF00
00FC00
ENDCHAR
STARTCHAR 016B
ENCODING 363
SWIDTH 603 0
DWIDTH 26 0
BBX 20 33 3 -1
BITMAP
1FFF80
1FFF80
1FFF80
000000
000000
000000
000000
000000
E00070
E00070
E00070
E00070
E00070
E00070
E00070
E00070
E00070
E00070
E00070
E00070
E00070
E00070
E00070
E00070
E00070
F000F0
7000F0
7801F0
3803F0
3E0770
1FFF70
07FC70
01F000
ENDCHAR
STARTCHAR 016E
ENCODING 366
SWIDTH 650 0
DWIDTH 28 0
BBX 22 44 3 -1
BITMAP
003800
00FC00
00FE00
01CE00
018600
018600
01CE00
01FE00
00FC00
00FC00
007800
E0001C
E0001C
E0001C
E0001C
E0001C
E0001C
E0001C
E0001C
E0001C
E0001C
E0001C
E0001C
E0001C
E0001C
E0001C
E0001C
E0001C
E0001C
E0001C
E0001C
E0001C
E0001C
E0001C
E0001C
F0001C
700038
700038
380070
3C00F0
1F03E0
0FFFC0
07FF00
00FC00
ENDCHAR
STARTCHAR 016F
ENCODING 367
SWIDTH 603 0
DWIDTH 26 0
BBX 20 37 3 -1
BITMAP
00F000
01F800
03FC00
039C00
030C00
030C00
039C00
03FC00
01F800
006000
000000
000000
E00070
E00070
E00070
E00070
E00070
E00070
E00070
E00070
E00070
E00070
E00070
E00070
E00070
E00070
E00070
E00070
E00070
F000F0
7000F0
7801F0
3803F0
3E0770
1FFF70
07FC70
01F000
ENDCHAR
STARTCHAR 0170
ENCODING 368
SWIDTH 650 0
DWIDTH 28 0
BBX 22 42 3 0
BITMAP
001010
003878
00F8F0
01E1E0
03C3C0
078780
070700
000000
000000
E0001C
E0001C
E0001C
E0001C
E0001C
E0001C
E0001C
E0001C
E0001C
E0001C
E0001C
E0001C
E0001C
E0001C
E0001C
E0001C
E0001C
E0001C
E0001C
E0001C
E0001C
E0001C
E0001C
E0001C
F0001C
700038
700038
380070
3C00F0
1F03E0
0FFFC0
07FF00
00FC00
ENDCHAR
STARTCHAR 0171
ENCODING 369
SWIDTH 603 0
DWIDTH 26 0
BBX 20 35 3 0
BITMAP
003060
00F0F0
01E1E0
03C7C0
078F00
0F1E00
060C00
000000
000000
000000
E00070
E00070
E00070
E00070
E00070
E00070
E00070
E00070
E00070
E00070
E00070
E00070
E00070
E00070
E00070
E00070
E00070
F000F0
7000F0
7801F0
3803F0
3E0770
1FFF70
07FC70
01F000
ENDCHAR
STARTCHAR 0172
ENCODING 370
SWIDTH 650 0
DWIDTH 28 0
BBX 22 40 3 -8
BITMAP
E0001C
E0001C
E0001C
E0001C
E0001C
E0001C
E0001C
E0001C
E0001C
E0001C
E0001C
E0001C
E0001C
E0001C
E0001C
E0001C
E0001C
E0001C
E0001C
E0001C
E0001C
E0001C
E0001C
E0001C
F0001C
700038
780038
380070
3C00F0
1F03E0
0FFFC0
03FF00
00FC00
003000
007000
006000
006000
007000
003F00
001F00
ENDCHAR
STARTCHAR 0173
ENCODING 371
SWIDTH 603 0
DWIDTH 26 0
BBX 21 32 3 -8
BITMAP
E00070
E00070
E00070
E00070
E00070
E00070
E00070
E00070
E00070
E00070
E00070
E00070
E00070
E00070
E00070
E00070
E00070
F000F0
7000F0
7001F0
3803F0
3E0770
1FFF70
07FC70
01F0E0
0001C0
000380
000300
000300
000380
0001F8
0000F8
ENDCHAR
STARTCHAR 0179
ENCODING 377
SWIDTH 487 0
DWIDTH 21 0
BBX 20 41 1 1
BITMAP
000400
001E00
007E00
01F800
07F000
03C000
030000
000000
000000
FFFFF0
FFFFF0
FFFFF0
0000F0
0001E0
0003C0
0003C0
000780
000780
000F00
001E00
001E00
003C00
003800
007800
00F000
00F000
01E000
03C000
03C000
078000
070000
0F0000
1E0000
1E0000
3C0000
380000
780000
F00000
FFFFF0
FFFFF0
FFFFF0
ENDCHAR
STARTCHAR 017A
ENCODING 378
SWIDTH 418 0
DWIDTH 18 0
BBX 17 34 0 1
BITMAP
001800
007800
01F800
07E000
0F8000
070000
040000
000000
000000
000000
FFFF00
FFFF00
FFFF00
000F00
000E00
001C00
003C00
007800
007000
00F000
01E000
01C000
03C000
078000
070000
0F0000
1E0000
1C0000
3C0000
780000
700000
FFFF80
FFFF80
FFFF80
ENDCHAR
STARTCHAR 017B
ENCODING 379
SWIDTH 487 0
DWIDTH 21 0
BBX 19 41 1 0
BITMAP
00E000
00E000
00E000
00E000
00E000
00E000
000000
000000
000000
FFFFE0
FFFFE0
FFFFE0
0001E0
0003C0
000380
000780
000700
000F00
001E00
001C00
003C00
003800
007800
00F000
00E000
01E000
01C000
03C000
078000
070000
0F0000
0E0000
1E0000
3C0000
380000
780000
700000
F00000
FFFFE0
FFFFE0
FFFFE0
ENDCHAR
STARTCHAR 017C
ENCODING 380
SWIDTH 418 0
DWIDTH 18 0
BBX 17 34 1 0
BITMAP
01C000
01C000
01C000
01C000
01C000
01C000
000000
000000
000000
000000
FFFF00
FFFF00
FFFF00
000F00
000E00
001C00
003C00
007800
007000
00F000
01E000
01C000
03C000
078000
070000
0F0000
1E0000
1C0000
380000
780000
F00000
FFFF80
FFFF80
FFFF80
ENDCHAR
STARTCHAR 017D
ENCODING 381
SWIDTH 487 0
DWIDTH 21 0
BBX 20 40 1 0
BITMAP
1E0780
0F0F00
07BC00
03F800
00F000
000000
000000
000000
FFFFF0
FFFFF0
FFFFF0
0000F0
0001E0
0003C0
0003C0
000780
000780
000F00
001E00
001E00
003C00
007800
007800
00F000
00F000
01E000
03C000
03C000
078000
070000
0F0000
1E0000
1E0000
3C0000
380000
780000
F00000
FFFFF0
FFFFF0
FFFFF0
ENDCHAR
STARTCHAR 017E
ENCODING 382
SWIDTH 418 0
DWIDTH 18 0
BBX 17 33 0 0
BITMAP
781E00
1E3C00
0F7800
07F000
03C000
000000
000000
000000
000000
FFFF00
FFFF00
FFFF00
000F00
000E00
001C00
003C00
007800
007000
00F000
01E000
01C000
03C000
078000
070000
0F0000
1E0000
1C0000
3C0000
780000
700000
FFFF80
FFFF80
FFFF80
ENDCHAR
STARTCHAR 0218
ENCODING 536
SWIDTH 487 0
DWIDTH 21 0
BBX 19 43 1 -10
BITMAP
01F000
07FC00
0FFF00
1E0F00
3C0780
380380
7003C0
7001C0
7001C0
700000
700000
780000
3C0000
3E0000
1FC000
0FF800
03FE00
007F00
000F80
0007C0
0001C0
0001E0
0000E0
0000E0
E000E0
E000E0
F000E0
7001C0
7801C0
3803C0
3E0F80
1FFF00
07FC00
01F000
000000
000000
00E000
00E000
01C000
01C000
038000
038000
030000
ENDCHAR
STARTCHAR 0219
ENCODING 537
SWIDTH 394 0
DWIDTH 17 0
BBX 15 35 1 -10
BITMAP
0380
0FF0
1FF8
3C78
783C
701C
701C
7000
7800
7C00
3F00
1FC0
0FF0
01F8
007C
001E
001E
000E
E00E
E00E
F00E
701C
783C
3FF8
1FF0
03C0
0000
0000
0380
0380
0700
0700
0E00
0E00
1C00
ENDCHAR
STARTCHAR 021A
ENCODING 538
SWIDTH 418 0
DWIDTH 18 0
BBX 17 42 1 -10
BITMAP
FFFF80
FFFF80
FFFF80
01C000
01C000
01C000
01C000
01C000
01C000
01C000
01C000
01C000
01C000
01C000
01C000
01C000
01C000
01C000
01C000
01C000
01C000
01C000
01C000
01C000
01C000
01C000
01C000
01C000
01C000
01C000
01C000
01C000
000000
000000
000000
01C000
01C000
038000
038000
070000
070000
0E0000
ENDCHAR
STARTCHAR 021B
ENCODING 539
SWIDTH 348 0
DWIDTH 15 0
BBX 14 42 1 -10
BITMAP
0700
0700
0700
0700
0700
0700
0700
0700
FFFC
FFFC
FFFC
0700
0700
0700
0700
0700
0700
0700
0700
0700
0700
0700
0700
0700
0700
0700
0700
0700
0700
0700
0700
0700
0000
0000
0000
0300
0700
0600
0E00
0C00
1C00
1800
ENDCHAR
STARTCHAR 02C7
ENCODING 711
SWIDTH 510 0
DWIDTH 22 0
BBX 13 5 4 28
BITMAP
F038
78F0
3DE0
1FC0
0F80
ENDCHAR
STARTCHAR 02D8
ENCODING 728
SWIDTH 464 0
DWIDTH 20 0
BBX 15 5 2 28
BITMAP
E00E
783C
7FFC
1FF0
07C0
ENDCHAR
STARTCHAR 02D9
ENCODING 729
SWIDTH 232 0
DWIDTH 10 0
BBX 3 6 3 28
BITMAP
E0
E0
E0
E0
E0
E0
ENDCHAR
STARTCHAR 02DB
ENCODING 731
SWIDTH 301 0
DWIDTH 13 0
BBX 7 8 3 -7
BITMAP
38
60
E0
C0
C0
E0
7E
3E
ENDCHAR
STARTCHAR 02DD
ENCODING 733
SWIDTH 557 0
DWIDTH 24 0
BBX 16 7 5 27
BITMAP
0306
078F
1E1E
3C3C
7878
F1E0
60C0
ENDCHAR
STARTCHAR 0394
ENCODING 916
SWIDTH 603 0
DWIDTH 26 0
BBX 26 30 0 1
BITMAP
00040000
00060000
00060000
000E0000
000F0000
001F0000
001F8000
003F8000
00378000
0067C000
0063C000
00C3E000
00C3E000
0081E000
0181F000
0180F000
0300F800
0300F800
06007800
06007C00
0C003C00
0C003E00
18003E00
18001E00
10001F00
30000F00
20000F80
60000F80
7FFFFF80
FFFFFFC0
ENDCHAR
STARTCHAR 03BC
ENCODING 956
SWIDTH 603 0
DWIDTH 26 0
BBX 20 32 3 -9
BITMAP
E00070
E00070
E00070
E00070
E00070
E00070
E00070
E00070
E00070
E00070
E00070
E00070
E00070
E00070
E00070
E00070
E00070
F000F0
F000F0
F801F0
FC03F0
FF07F0
EFFF70
E7FE70
E1F000
E00000
E00000
E00000
E00000
E00000
E00000
E00000
ENDCHAR
STARTCHAR 2013
ENCODING 8211
SWIDTH 510 0
DWIDTH 22 0
BBX 19 3 2 11
BITMAP
FFFFE0
FFFFE0
FFFFE0
ENDCHAR
STARTCHAR 2014
ENCODING 8212
SWIDTH 998 0
DWIDTH 43 0
BBX 40 3 2 11
BITMAP
FFFFFFFFFF
FFFFFFFFFF
FFFFFFFFFF
ENDCHAR
STARTCHAR 2018
ENCODING 8216
SWIDTH 348 0
DWIDTH 15 0
BBX 7 9 4 23
BITMAP
E0
70
70
38
38
3C
1C
1E
0E
ENDCHAR
STARTCHAR 2019
ENCODING 8217
SWIDTH 348 0
DWIDTH 15 0
BBX 7 9 4 23
BITMAP
0E
1C
1C
38
38
78
70
F0
E0
ENDCHAR
STARTCHAR 201A
ENCODING 8218
SWIDTH 348 0
DWIDTH 15 0
BBX 7 9 4 -3
BITMAP
0E
1C
1C
3C
38
38
70
70
E0
ENDCHAR
STARTCHAR 201C
ENCODING 8220
SWIDTH 510 0
DWIDTH 22 0
BBX 13 9 4 23
BITMAP
E3C0
71C0
71C0
38E0
38E0
3C70
1C70
1C78
0E38
ENDCHAR
STARTCHAR 201D
ENCODING 8221
SWIDTH 487 0
DWIDTH 21 0
BBX 13 9 4 23
BITMAP
1E38
1C70
1C70
38E0
38E0
71E0
71C0
E1C0
E380
ENDCHAR
STARTCHAR 201E
ENCODING 8222
SWIDTH 510 0
DWIDTH 22 0
BBX 13 9 4 -3
BITMAP
1E38
1C70
1C70
38F0
38E0
78E0
71C0
71C0
E3C0
ENDCHAR
STARTCHAR 2020
ENCODING 8224
SWIDTH 557 0
DWIDTH 24 0
BBX 19 38 2 -6
BITMAP
00E000
00E000
00E000
00E000
00E000
00E000
00E000
00E000
FFFFE0
FFFFE0
FFFFE0
00E000
00E000
00E000
00E000
00E000
00E000
00E000
00E000
00E000
00E000
00E000
00E000
00E000
00E000
00E000
00E000
00E000
00E000
00E000
00E000
00E000
00E000
00E000
00E000
00E000
00E000
00E000
ENDCHAR
STARTCHAR 2021
ENCODING 8225
SWIDTH 557 0
DWIDTH 24 0
BBX 19 38 2 -6
BITMAP
00E000
00E000
00E000
00E000
00E000
00E000
00E000
00E000
FFFFE0
FFFFE0
FFFFE0
00E000
00E000
00E000
00E000
00E000
00E000
00E000
00E000
00E000
00E000
00E000
00E000
00E000
00E000
00E000
FFFFE0
FFFFE0
FFFFE0
00E000
00E000
00E000
00E000
00E000
00E000
00E000
00E000
00E000
ENDCHAR
STARTCHAR 2022
ENCODING 8226
SWIDTH 603 0
DWIDTH 26 0
BBX 13 14 6 10
BITMAP
0F80
1FE0
3FF0
7FF0
FFF8
FFF8
FFF8
FFF8
FFF8
FFF8
7FF0
3FE0
3FE0
0F80
ENDCHAR
STARTCHAR 2026
ENCODING 8230
SWIDTH 998 0
DWIDTH 43 0
BBX 31 6 6 0
BITMAP
E003800E
E003800E
E003800E
E003800E
E003800E
E003800E
ENDCHAR
STARTCHAR 2030
ENCODING 8240
SWIDTH 1184 0
DWIDTH 51 0
BBX 49 34 1 -1
BITMAP
07E00000000000
1FF801C0000000
3FFC01C0000000
7C3E0380000000
700E0300000000
F00F0700000000
E0070E00000000
E0070E00000000
E0071C00000000
E0071C00000000
F00F3800000000
700E3000000000
7C3E7000000000
3FFCE000000000
0FF0E000000000
03C1C000000000
0001C000000000
000383C001E000
00030FF007F800
00073FFC1FFE00
000E3C3C1E1E00
000E781E3C0F00
001C700F380780
001CE007700380
0038E007700380
0030E007700380
0070E007700380
00E0E007700380
00E0700E380700
01C0781E3C0F00
01C03C3C1E1E00
03803FFC1FFE00
03000FF007F800
000003C001E000
ENDCHAR
STARTCHAR 2039
ENCODING 8249
SWIDTH 255 0
DWIDTH 11 0
BBX 7 18 2 4
BITMAP
08
0E
1C
1C
38
38
70
70
E0
E0
70
70
38
38
1C
1E
0E
08
ENDCHAR
STARTCHAR 203A
ENCODING 8250
SWIDTH 255 0
DWIDTH 11 0
BBX 7 18 2 4
BITMAP
20
E0
70
70
38
38
1C
1C
0E
0E
1C
1C
38
38
70
70
E0
20
ENDCHAR
STARTCHAR 20AC
ENCODING 8364
SWIDTH 557 0
DWIDTH 24 0
BBX 21 34 1 -1
BITMAP
001F80
007FF0
01FFF8
03E078
038018
070000
070000
0E0000
0E0000
0C0000
0C0000
1C0000
7FFFE0
7FFFC0
FFFFC0
1C0000
1C0000
1C0000
7FFF80
7FFF00
FFFF00
1C0000
1C0000
0C0000
0E0000
0E0000
0E0000
070000
078008
03C018
01F078
01FFF8
007FF0
001F80
ENDCHAR
STARTCHAR 2122
ENCODING 8482
SWIDTH 998 0
DWIDTH 43 0
BBX 35 19 0 13
BITMAP
FFF38000E0
FFF3C001E0
0603C001E0
0603E003E0
0603600360
0603700760
0603300660
0603380E60
0603180C60
06031C1C60
06030C1860
06030E3860
06030E3060
0603077060
0603077060
060303E060
060303E060
060301C060
060301C060
ENDCHAR
STARTCHAR 2202
ENCODING 8706
SWIDTH 487 0
DWIDTH 21 0
BBX 18 33 1 -2
BITMAP
0FC000
3FF000
383800
001C00
000E00
000700
000300
000380
000380
000180
0001C0
0001C0
0001C0
0001C0
0001C0
07E1C0
0FF9C0
1E0FC0
3807C0
7803C0
7003C0
F003C0
E003C0
E00780
E00780
E00780
E00F00
E00F00
701E00
703C00
3C7C00
1FF000
07C000
ENDCHAR
STARTCHAR 2206
ENCODING 8710
SWIDTH 603 0
DWIDTH 26 0
BBX 26 30 0 1
BITMAP
00040000
00060000
00060000
000E0000
000F0000
001F0000
001F8000
003F8000
00378000
0067C000
0063C000
00C3E000
00C3E000
0081E000
0181F000
0180F000
0300F800
0300F800
06007800
06007C00
0C003C00
0C003E00
18003E00
18001E00
10001F00
30000F00
20000F80
60000F80
7FFFFF80
FFFFFFC0
ENDCHAR
STARTCHAR 2211
ENCODING 8721
SWIDTH 603 0
DWIDTH 26 0
BBX 24 32 2 0
BITMAP
FFFFF8
FFFFF8
7FFFF8
3C0038
3E0008
1E0008
0F0008
078000
07C000
03C000
01E000
00F000
00F800
007800
003C00
003E00
001E00
000E00
001C00
003800
007000
00E000
01C000
018000
038001
070002
0E0002
1C0006
38000E
7FFFFC
7FFFFC
FFFFFC
ENDCHAR
STARTCHAR 2219
ENCODING 8729
SWIDTH 278 0
DWIDTH 12 0
BBX 3 6 4 8
BITMAP
E0
E0
E0
E0
E0
E0
ENDCHAR
STARTCHAR 221A
ENCODING 8730
SWIDTH 464 0
DWIDTH 20 0
BBX 19 35 0 -2
BITMAP
0000E0
0000E0
0000E0
0000C0
0000C0
0000C0
0001C0
0001C0
0001C0
000180
000180
000180
000180
040380
1C0380
7E0380
EE0300
070300
070300
038700
038700
018700
01C600
00C600
00E600
006E00
007E00
003E00
003C00
001C00
001C00
000C00
000C00
000400
000400
ENDCHAR
STARTCHAR 2260
ENCODING 8800
SWIDTH 557 0
DWIDTH 24 0
BBX 23 24 1 -1
BITMAP
0000C0
0001E0
0001E0
0003C0
000380
000780
FFFFFE
FFFFFE
FFFFFE
001C00
003C00
003800
007800
007000
00F000
FFFFFE
FFFFFE
FFFFFE
038000
078000
0F0000
0F0000
1E0000
040000
ENDCHAR
STARTCHAR 2264
ENCODING 8804
SWIDTH 557 0
DWIDTH 24 0
BBX 21 29 1 0
BITMAP
000008
000038
0000F8
0003F8
000FE0
007F80
01FC00
07F000
1FC000
7F0000
FC0000
F00000
FC0000
7F0000
1FC000
07F000
01FE00
003F80
000FE0
0003F8
0000F8
000038
000008
000000
000000
000000
FFFFF8
FFFFF8
FFFFF8
ENDCHAR
STARTCHAR 2265
ENCODING 8805
SWIDTH 557 0
DWIDTH 24 0
BBX 21 29 1 0
BITMAP
800000
E00000
F80000
FE0000
3F8000
0FF000
01FC00
007F00
001FC0
0007F0
0001F8
000078
0001F8
0007F0
001FC0
007F00
03FC00
0FE000
3F8000
FE0000
F80000
E00000
800000
000000
000000
000000
FFFFF8
FFFFF8
FFFFF8
ENDCHAR
STARTCHAR 25CA
ENCODING 9674
SWIDTH 464 0
DWIDTH 20 0
BBX 19 32 1 0
BITMAP
00E000
00E000
01F000
01F000
03B800
03B800
071C00
0F1E00
0E0E00
1E0F00
1C0700
3C0780
380380
7803C0
7001C0
F001E0
F001E0
7001C0
7803C0
380380
3C0780
1C0700
1E0F00
0E0E00
0F1E00
071C00
07BC00
03B800
03F800
01F000
01F000
00E000
ENDCHAR
ENDFONT
